<?xml version="1.0" encoding="UTF-8"?>
<svg width="21px" height="16px" viewBox="0 0 21 16" version="1.1" xmlns="http://www.w3.org/2000/svg" xmlns:xlink="http://www.w3.org/1999/xlink">
    <!-- Generator: Sketch 57.1 (83088) - https://sketch.com -->
    <title>Group</title>
    <desc>Created with Sketch.</desc>
    <g id="Page-1" stroke="none" stroke-width="1" fill="none" fill-rule="evenodd">
        <g id="Group" transform="translate(0.859942, 0.127666)" fill="#000000" fill-rule="nonzero">
            <path d="M14.6920584,14.8353343 C14.5060584,14.8953343 14.3550584,15.0183343 14.1500584,14.9683343 C13.9860584,14.9283343 13.9590584,14.9123343 13.9270584,14.7383343 C13.9098282,14.6197898 13.8758208,14.5042994 13.8260584,14.3953343 C13.5960584,13.9423343 13.3550584,13.4973343 13.1260584,13.0443343 C13.0320584,12.8613343 12.9600584,12.6663343 12.8740584,12.4793343 C12.7470584,12.2043343 12.6100584,11.9353343 12.4890584,11.6583343 C12.2550584,11.1223343 11.9680584,10.5983343 11.8180584,10.0403343 C11.6520584,9.42233428 11.3760584,8.86533428 11.1080584,8.29733428 C10.9660584,7.99433428 10.8350584,7.68733428 10.7730584,7.35133428 C10.6950584,6.92833428 10.5760584,6.51133428 10.4680584,6.09533428 C10.4500584,6.02833428 10.3970584,5.97033428 10.3350584,5.86433428 C10.2590584,5.96833428 10.2000584,6.02933428 10.1670584,6.10133428 C9.86205844,6.75933428 9.56505844,7.42033428 9.25705844,8.07833428 C9.05105844,8.52333428 8.80905844,8.95433428 8.62905844,9.40833428 C8.44305844,9.87633428 8.25905844,10.3383343 8.01405844,10.7763343 C7.87005844,11.0323343 7.72805844,11.2893343 7.59605844,11.5513343 C7.40505844,11.9283343 7.22805844,12.3133343 7.03805844,12.6903343 C6.96105844,12.8443343 6.86305844,12.9883343 6.77805844,13.1383343 C6.72867349,13.2194448 6.68586974,13.3043835 6.65005844,13.3923343 C6.51505844,13.7463343 6.38305844,14.1023343 6.25605844,14.4593343 C6.14105844,14.7823343 5.94805844,14.9043343 5.60605844,14.8693343 C5.49105844,14.8573343 5.44805844,14.7863343 5.41505844,14.6893343 C5.24905844,14.2093343 5.09205844,13.7263343 4.90905844,13.2523343 C4.76105844,12.8703343 4.57205844,12.5023343 4.41905844,12.1213343 C4.33705844,11.9163343 4.28905844,11.6953343 4.22705844,11.4813343 C4.21905844,11.4573343 4.21405844,11.4293343 4.20005844,11.4093343 C3.96005844,11.0723343 3.87605844,10.6693343 3.73505844,10.2913343 C3.61905844,9.97733428 3.53505844,9.65033428 3.43105844,9.33133428 C3.37734228,9.17752966 3.31796854,9.02575972 3.25305844,8.87633428 C3.18005844,8.70133428 3.08805844,8.53233428 3.02705844,8.35333428 C2.85705844,7.84733428 2.71005844,7.33333428 2.53505844,6.83033428 C2.41305844,6.48033428 2.25205844,6.14633428 2.12105844,5.79933428 C1.96105844,5.37133428 1.83105844,4.93133428 1.65705844,4.50833428 C1.32405844,3.70433428 1.13305844,2.85233428 0.784058437,2.05133428 C0.574058437,1.57033428 0.363058437,1.08733428 0.164058437,0.601334277 C0.146058437,0.553334277 0.133058437,0.491334277 0.0970584366,0.463334277 C-0.0299415634,0.362334277 -0.00394156342,0.241334277 0.0190584366,0.137334277 C0.244058437,0.115334277 0.452058437,0.0973342775 0.659058437,0.0723342775 C1.12505844,0.0123342775 1.58805844,0.0983342775 2.05405844,0.0863342775 C2.45005844,0.0763342775 2.84705844,0.100334277 3.24305844,0.116334277 C3.40705844,0.124334277 3.51005844,0.226334277 3.56005844,0.380334277 C3.68305844,0.766334277 3.80005844,1.15333428 3.92905844,1.53733428 C4.11805844,2.10233428 4.31105844,2.66533428 4.50905844,3.22733428 C4.75605844,3.92633428 5.00905844,4.62333428 5.26105844,5.32033428 C5.37605844,5.63733428 5.50105844,5.95033428 5.60805844,6.26933428 C5.70305844,6.55533428 5.77305844,6.84933428 5.86305844,7.13633428 C5.95105844,7.41233428 6.05105844,7.68433428 6.15905844,7.99633428 C6.22605844,7.92633428 6.28105844,7.89333428 6.29605844,7.84633428 C6.35405844,7.66633428 6.39405844,7.48233428 6.45205844,7.30233428 C6.51805844,7.09833428 6.58505844,6.89233428 6.67205844,6.69833428 C6.86905844,6.25833428 7.07505844,5.82433428 7.28605844,5.39333428 C7.41205844,5.13733428 7.55405844,4.89033428 7.69105844,4.64033428 C7.79005844,4.46033428 7.90105844,4.28533428 7.99405844,4.10033428 C8.17705844,3.72933428 8.34405844,3.35033428 8.53105844,2.98033428 C8.65405844,2.73433428 8.78505844,2.49033428 8.93105844,2.25933428 C9.16305844,1.89333428 9.33105844,1.49933428 9.49805844,1.09933428 C9.62705844,0.791334277 9.77505844,0.488334277 9.92505844,0.188334277 C10.0080584,0.0223342775 10.2180584,-0.0326657225 10.5170584,0.0183342775 C10.4560584,0.184334277 10.5140584,0.326334277 10.5940584,0.473334277 C11.0260584,1.25933428 11.3440584,2.09933428 11.7180584,2.91333428 C11.9380584,3.39033428 12.1770584,3.85933428 12.4010584,4.33533428 C12.7030584,4.97533428 12.9960584,5.61933428 13.2990584,6.25833428 C13.4810584,6.64133428 13.6770584,7.01633428 13.8610584,7.39633428 C13.9140584,7.50433428 13.9530584,7.62033428 13.9890584,7.73533428 C14.0650584,7.97833428 14.0630584,7.97833428 14.3110584,8.14533428 C14.4650584,7.78033428 14.6190584,7.42333428 14.7100584,7.03433428 C14.8100584,6.61033428 14.8500584,6.17433428 15.0220584,5.76233428 C15.2110584,5.31033428 15.3240584,4.82733428 15.4840584,4.36233428 C15.5880584,4.06233428 15.7180584,3.77033428 15.8340584,3.47433428 C15.9320584,3.22633428 16.0190584,2.97433428 16.1220584,2.72933428 C16.2480584,2.42933428 16.4000584,2.13933428 16.5140584,1.83633428 C16.5940584,1.62233428 16.6230584,1.38833428 16.6870584,1.16633428 C16.7670584,0.885334277 16.8530584,0.605334277 16.9470584,0.328334277 C16.9877874,0.1897873 17.1118147,0.0922513211 17.2560584,0.0853342775 C17.4090584,0.0753342775 17.5640584,0.0693342775 17.7160584,0.0703342775 C18.0680584,0.0703342775 18.4160584,0.153334277 18.7710584,0.0903342775 C18.8600584,0.0743342775 18.9570584,0.104334277 19.0500584,0.107334277 C19.1350584,0.109334277 19.2200584,0.105334277 19.3050584,0.103334277 C19.5350584,0.0973342775 19.7650584,0.0963342775 19.9520584,0.221334277 C19.7320584,0.791334277 19.5410584,1.34433428 19.3060584,1.87833428 C19.0100584,2.55433428 18.8260584,3.26433428 18.6050584,3.96233428 C18.4930584,4.31633428 18.3520584,4.66133428 18.2200584,5.00833428 C17.9925335,5.60556601 17.7635328,6.2022345 17.5330584,6.79833428 C17.2920584,7.42633428 17.0470584,8.05433428 16.8090584,8.68433428 C16.7410584,8.86133428 16.7010584,9.04833428 16.6320584,9.22433428 C16.4540584,9.68233428 16.2590584,10.1343343 16.0840584,10.5943343 C15.9640584,10.9083343 15.8480584,11.2263343 15.7620584,11.5503343 C15.6002022,12.1492394 15.4018311,12.7376734 15.1680584,13.3123343 C15.0430584,13.6243343 14.9560584,13.9503343 14.8560584,14.2713343 C14.7960584,14.4603343 14.7450584,14.6513343 14.6920584,14.8353343 L14.6920584,14.8353343 Z" id="Path"></path>
            <path d="M14.6920584,14.8353343 C14.5060584,14.8953343 14.3550584,15.0183343 14.1500584,14.9683343 C13.9860584,14.9283343 13.9590584,14.9123343 13.9270584,14.7383343 C13.9098282,14.6197898 13.8758208,14.5042994 13.8260584,14.3953343 C13.5960584,13.9423343 13.3550584,13.4973343 13.1260584,13.0443343 C13.0320584,12.8613343 12.9600584,12.6663343 12.8740584,12.4793343 C12.7470584,12.2043343 12.6100584,11.9353343 12.4890584,11.6583343 C12.2550584,11.1223343 11.9680584,10.5983343 11.8180584,10.0403343 C11.6520584,9.42233428 11.3760584,8.86533428 11.1080584,8.29733428 C10.9660584,7.99433428 10.8350584,7.68733428 10.7730584,7.35133428 C10.6950584,6.92833428 10.5760584,6.51133428 10.4680584,6.09533428 C10.4500584,6.02833428 10.3970584,5.97033428 10.3350584,5.86433428 C10.2590584,5.96833428 10.2000584,6.02933428 10.1670584,6.10133428 C9.86205844,6.75933428 9.56505844,7.42033428 9.25705844,8.07833428 C9.05105844,8.52333428 8.80905844,8.95433428 8.62905844,9.40833428 C8.44305844,9.87633428 8.25905844,10.3383343 8.01405844,10.7763343 C7.87005844,11.0323343 7.72805844,11.2893343 7.59605844,11.5513343 C7.40505844,11.9283343 7.22805844,12.3133343 7.03805844,12.6903343 C6.96105844,12.8443343 6.86305844,12.9883343 6.77805844,13.1383343 C6.72867349,13.2194448 6.68586974,13.3043835 6.65005844,13.3923343 C6.51505844,13.7463343 6.38305844,14.1023343 6.25605844,14.4593343 C6.14105844,14.7823343 5.94805844,14.9043343 5.60605844,14.8693343 C5.49105844,14.8573343 5.44805844,14.7863343 5.41505844,14.6893343 C5.24905844,14.2093343 5.09205844,13.7263343 4.90905844,13.2523343 C4.76105844,12.8703343 4.57205844,12.5023343 4.41905844,12.1213343 C4.33705844,11.9163343 4.28905844,11.6953343 4.22705844,11.4813343 C4.21905844,11.4573343 4.21405844,11.4293343 4.20005844,11.4093343 C3.96005844,11.0723343 3.87605844,10.6693343 3.73505844,10.2913343 C3.61905844,9.97733428 3.53505844,9.65033428 3.43105844,9.33133428 C3.37734228,9.17752966 3.31796854,9.02575972 3.25305844,8.87633428 C3.18005844,8.70133428 3.08805844,8.53233428 3.02705844,8.35333428 C2.85705844,7.84733428 2.71005844,7.33333428 2.53505844,6.83033428 C2.41305844,6.48033428 2.25205844,6.14633428 2.12105844,5.79933428 C1.96105844,5.37133428 1.83105844,4.93133428 1.65705844,4.50833428 C1.32405844,3.70433428 1.13305844,2.85233428 0.784058437,2.05133428 C0.574058437,1.57033428 0.363058437,1.08733428 0.164058437,0.601334277 C0.146058437,0.553334277 0.133058437,0.491334277 0.0970584366,0.463334277 C-0.0299415634,0.362334277 -0.00394156342,0.241334277 0.0190584366,0.137334277 C0.244058437,0.115334277 0.452058437,0.0973342775 0.659058437,0.0723342775 C1.12505844,0.0123342775 1.58805844,0.0983342775 2.05405844,0.0863342775 C2.45005844,0.0763342775 2.84705844,0.100334277 3.24305844,0.116334277 C3.40705844,0.124334277 3.51005844,0.226334277 3.56005844,0.380334277 C3.68305844,0.766334277 3.80005844,1.15333428 3.92905844,1.53733428 C4.11805844,2.10233428 4.31105844,2.66533428 4.50905844,3.22733428 C4.75605844,3.92633428 5.00905844,4.62333428 5.26105844,5.32033428 C5.37605844,5.63733428 5.50105844,5.95033428 5.60805844,6.26933428 C5.70305844,6.55533428 5.77305844,6.84933428 5.86305844,7.13633428 C5.95105844,7.41233428 6.05105844,7.68433428 6.15905844,7.99633428 C6.22605844,7.92633428 6.28105844,7.89333428 6.29605844,7.84633428 C6.35405844,7.66633428 6.39405844,7.48233428 6.45205844,7.30233428 C6.51805844,7.09833428 6.58505844,6.89233428 6.67205844,6.69833428 C6.86905844,6.25833428 7.07505844,5.82433428 7.28605844,5.39333428 C7.41205844,5.13733428 7.55405844,4.89033428 7.69105844,4.64033428 C7.79005844,4.46033428 7.90105844,4.28533428 7.99405844,4.10033428 C8.17705844,3.72933428 8.34405844,3.35033428 8.53105844,2.98033428 C8.65405844,2.73433428 8.78505844,2.49033428 8.93105844,2.25933428 C9.16305844,1.89333428 9.33105844,1.49933428 9.49805844,1.09933428 C9.62705844,0.791334277 9.77505844,0.488334277 9.92505844,0.188334277 C10.0080584,0.0223342775 10.2180584,-0.0326657225 10.5170584,0.0183342775 C10.4560584,0.184334277 10.5140584,0.326334277 10.5940584,0.473334277 C11.0260584,1.25933428 11.3440584,2.09933428 11.7180584,2.91333428 C11.9380584,3.39033428 12.1770584,3.85933428 12.4010584,4.33533428 C12.7030584,4.97533428 12.9960584,5.61933428 13.2990584,6.25833428 C13.4810584,6.64133428 13.6770584,7.01633428 13.8610584,7.39633428 C13.9140584,7.50433428 13.9530584,7.62033428 13.9890584,7.73533428 C14.0650584,7.97833428 14.0630584,7.97833428 14.3110584,8.14533428 C14.4650584,7.78033428 14.6190584,7.42333428 14.7100584,7.03433428 C14.8100584,6.61033428 14.8500584,6.17433428 15.0220584,5.76233428 C15.2110584,5.31033428 15.3240584,4.82733428 15.4840584,4.36233428 C15.5880584,4.06233428 15.7180584,3.77033428 15.8340584,3.47433428 C15.9320584,3.22633428 16.0190584,2.97433428 16.1220584,2.72933428 C16.2480584,2.42933428 16.4000584,2.13933428 16.5140584,1.83633428 C16.5940584,1.62233428 16.6230584,1.38833428 16.6870584,1.16633428 C16.7670584,0.885334277 16.8530584,0.605334277 16.9470584,0.328334277 C16.9877874,0.1897873 17.1118147,0.0922513211 17.2560584,0.0853342775 C17.4090584,0.0753342775 17.5640584,0.0693342775 17.7160584,0.0703342775 C18.0680584,0.0703342775 18.4160584,0.153334277 18.7710584,0.0903342775 C18.8600584,0.0743342775 18.9570584,0.104334277 19.0500584,0.107334277 C19.1350584,0.109334277 19.2200584,0.105334277 19.3050584,0.103334277 C19.5350584,0.0973342775 19.7650584,0.0963342775 19.9520584,0.221334277 C19.7320584,0.791334277 19.5410584,1.34433428 19.3060584,1.87833428 C19.0100584,2.55433428 18.8260584,3.26433428 18.6050584,3.96233428 C18.4930584,4.31633428 18.3520584,4.66133428 18.2200584,5.00833428 C17.9925335,5.60556601 17.7635328,6.2022345 17.5330584,6.79833428 C17.2920584,7.42633428 17.0470584,8.05433428 16.8090584,8.68433428 C16.7410584,8.86133428 16.7010584,9.04833428 16.6320584,9.22433428 C16.4540584,9.68233428 16.2590584,10.1343343 16.0840584,10.5943343 C15.9640584,10.9083343 15.8480584,11.2263343 15.7620584,11.5503343 C15.6002022,12.1492394 15.4018311,12.7376734 15.1680584,13.3123343 C15.0430584,13.6243343 14.9560584,13.9503343 14.8560584,14.2713343 C14.7960584,14.4603343 14.7450584,14.6513343 14.6920584,14.8353343 L14.6920584,14.8353343 Z" id="Path"></path>
        </g>
    </g>
</svg>