<svg width="294" height="17" xmlns="http://www.w3.org/2000/svg">
    <path d="M99.59 1.418c.634-.117 1.24-.228 1.864-.173.195.017.394-.028.591-.025.268.005.345.085.355.354.02.551.041 1.101.047 1.652.002.231-.055.463-.046.694.02.537-.033 1.071-.023 1.607.016.86-.014 1.72-.022 2.58 0 .085.01.172.024.256.021.128.088.18.223.234.28.11.547.088.828.064.196-.016.395.005.593.016.396.023.788-.005 1.182-.052.237-.029.486-.043.72-.002.37.066.737.037 1.105.028.567-.012 1.133-.045 1.741-.07.015-.083.05-.187.052-.292.007-.387.004-.775.003-1.162 0-.61.01-1.222-.009-1.832-.019-.6.028-1.2.018-1.8a59.177 59.177 0 0 1-.005-1.265c0-.18.014-.36.018-.54.003-.143.001-.285.001-.464.108-.019.24-.059.373-.063.428-.01.856-.004 1.284-.012.265-.004.53-.019.794-.037.182-.013.34.116.332.295-.019.464-.06.927-.063 1.39 0 .473.017.948.062 1.417.045.464.082.924.04 1.39-.022.222-.007.448-.016.671-.017.421-.04.842-.058 1.264-.01.266-.026.532-.023.8.003.43.02.858.031 1.288.015.62.032 1.238.04 1.857.003.197-.019.394-.035.591-.054.665.048 1.323.09 1.985.01.162.003.325.011.488.005.101.023.201.036.302.001.008.01.017.008.024-.057.28.024.562-.01.838-.04.308-.075.325-.384.323a85.796 85.796 0 0 1-1.342-.022c-.318-.009-.636-.017-.952-.044-.225-.018-.279-.094-.274-.32.008-.48.007-.963.034-1.443.03-.506.026-1.01.004-1.516-.016-.367-.063-.732-.095-1.08-.114-.053-.207-.112-.309-.14-.147-.04-.3-.074-.452-.08-.309-.014-.619-.002-.929-.01-.3-.009-.6-.037-.9-.042-.18-.002-.36.033-.54.036-.362.006-.724-.005-1.084.004-.446.012-.89.041-1.337.051-.17.004-.34-.028-.512-.034-.289-.01-.325.017-.326.317 0 .474.02.947.022 1.42.001.31.018.623-.029.926a3.815 3.815 0 0 0-.008 1.13c.02.143.006.292.026.436.031.213-.117.282-.262.24-.144-.042-.269-.01-.4.024-.272.073-.542.052-.817.011-.219-.032-.444-.018-.666-.028-.256-.012-.512-.028-.773-.042-.1-.37-.1-.736-.072-1.09.048-.58-.045-1.148-.073-1.72a9.384 9.384 0 0 1-.004-.672c.008-.352.023-.704.034-1.056.002-.035.004-.069.001-.104-.066-.624-.022-1.248-.009-1.873.012-.542.01-1.084.011-1.626.001-.456-.007-.91.001-1.367.005-.307.032-.615.043-.923.005-.16.124-.305.063-.473.14-.465-.005-.938.045-1.408.05-.487.054-.979.08-1.469l.03-.632zm15.303 14.43c0-.254.002-.476 0-.697-.005-.335-.014-.67-.02-1.005-.01-.731-.032-1.462-.03-2.194.002-.92.031-1.838.035-2.758.002-.62-.03-1.24-.025-1.86.006-.504.047-1.008.068-1.513.021-.532.08-1.06.035-1.595-.034-.41.002-.826.007-1.24.003-.221.01-.444.003-.667-.01-.351-.03-.703-.046-1.072.197-.062.4-.03.6-.024.276.006.55.023.824.026.404.003.806-.004 1.21-.003.257 0 .516.002.772.01.354.01.706.033 1.059.043.341.009.684.016 1.027.01.498-.005.996-.03 1.494-.033.634-.004 1.27.012 1.905.009.168 0 .337-.036.526-.06.064.298.17.596.181.897.016.383-.028.77-.078 1.153-.028.23-.115.456-.178.69h-.219c-.575.002-1.15.008-1.726.006-.298-.002-.597-.027-.896-.028-.31-.002-.619.025-.928.015-.48-.015-.959-.062-1.438-.072a6.523 6.523 0 0 0-.873.054c-.073.009-.136.1-.228.174l-.338-.023c.085 1.477-.055 2.925.043 4.392l.709.034c.273.014.546.04.819.04.404-.001.805.037 1.207.088.2.026.41-.031.616-.028.831.01 1.661.03 2.505.047.097.293.154.59.13.904-.008.117.026.237.019.354-.014.193-.053.384-.069.576-.01.125-.037.247.029.377.034.066-.022.178-.04.276-.3.038-.58 0-.86-.041a3.476 3.476 0 0 0-.538-.042c-.447.006-.894.019-1.34.04-.206.012-.41.054-.615.076a4.735 4.735 0 0 1-.462.03.272.272 0 0 1-.168-.05c-.178-.148-.383-.135-.584-.091a2.371 2.371 0 0 1-.843.02c-.16-.021-.322-.023-.483-.034-.06.2-.059 1.757.007 2.222.076.012.159.036.24.037.43.004.862.028 1.29-.003.61-.044 1.219-.03 1.829-.024 1.016.01 2.031-.017 3.047-.033.168-.003.335-.03.517-.046.062.322.13.612.17.906.02.149.023.315-.02.458-.094.32-.073.625.046.93.059.152.008.273-.168.317a1.643 1.643 0 0 1-.582.055 5.52 5.52 0 0 0-1.464.034c-.192.027-.394-.02-.591-.028a256.77 256.77 0 0 0-1.754-.074c-.427-.016-.856-.033-1.284-.036a9.952 9.952 0 0 0-.93.03c-.584.05-1.166.079-1.751.077-.24-.001-.482.02-.72.044-.234.024-.447-.055-.68-.077zm-25.23-.068c.052-.536.08-1.057.055-1.583-.032-.662-.02-1.326-.026-1.99-.005-.626-.014-1.254-.012-1.881.001-.731-.016-1.463.03-2.192.032-.526-.02-1.048-.002-1.571.017-.464.052-.928.053-1.392.002-.298-.041-.596-.061-.894-.008-.125-.076-.186-.192-.206-.067-.013-.134-.027-.203-.03-.326-.014-.65-.03-.977-.036-.498-.011-.998-.01-1.496-.022-.254-.007-.513.03-.764-.06a.26.26 0 0 1-.165-.141 1.03 1.03 0 0 1-.1-.744c.049-.221.01-.462.01-.695 0-.094.007-.19-.005-.283a.903.903 0 0 0-.078-.288c-.124-.241-.008-.481.261-.503.112-.01.225 0 .337 0 .127-.001.255-.005.383-.008.085-.002.17-.004.255-.004.291.002.59.049.872-.003.264-.05.526-.063.788-.072.273-.01.546.007.82.004.206-.002.413-.028.618-.023.439.01.877.044 1.315.053.532.01 1.064.004 1.596.01.36.006.72.022 1.08.033.094.003.19.013.283.01.294-.01.583.014.872.078.198.044.407.047.612.054.07.002.144-.035.215-.062a1.79 1.79 0 0 1 1.14-.07l-.064 2.587c-.266 0-.532.016-.794-.004-.44-.034-.874-.06-1.313.018-.115.02-.24 0-.36.004-.395.016-.79.037-1.186.05-.102.004-.206-.015-.308-.02-.15-.003-.19.03-.192.176-.007.575-.011 1.15-.013 1.727-.002.438-.005.876 0 1.314.004.308.022.617.026.926.007.534.014 1.067.008 1.6-.005.75-.022 1.498-.034 2.246-.008.396-.02.79-.022 1.187 0 .405.014.809.019 1.214 0 .103.002.208-.014.309a2.17 2.17 0 0 0 .044.868c.01.042.016.085.019.128.011.18-.08.307-.26.313-.306.01-.608.034-.922-.005-.367-.044-.747-.124-1.127-.04-.097.02-.206.002-.308-.007-.1-.01-.189-.032-.287.048-.096.079-.198.032-.425-.128zM238.01 3.704v.024c-.03 0-.062.002-.092-.001-.312-.024-.414.14-.393.415.01.132.026.264.025.395-.003.285-.015.569-.024.854-.003.08-.023.161-.018.24.02.271.061.541.065.813.007.37-.016.74-.018 1.111 0 .252.018.503.017.755 0 .306-.014.611-.024.916-.004.106.067.15.147.151a13.19 13.19 0 0 0 1.767-.123c.265-.039.527-.104.786-.173.201-.053.403-.115.592-.2.193-.086.385-.187.555-.312.15-.111.271-.261.401-.398.021-.021.02-.064.027-.096.015-.053.03-.105.042-.157.024-.098.045-.195.068-.293.038-.172.087-.342.112-.516.022-.141.025-.287.02-.43-.009-.165-.037-.33-.054-.495-.007-.073.007-.15-.01-.219-.044-.166-.023-.327.01-.491a.26.26 0 0 0-.008-.157 1.043 1.043 0 0 0-.282-.384c-.228-.188-.43-.408-.644-.614-.024-.023-.047-.052-.078-.067-.442-.216-.87-.467-1.387-.479-.252-.006-.503-.055-.756-.066-.282-.012-.564-.003-.846-.003zm-3.88 6.734c.021-.079.053-.158.06-.238.023-.3.033-.601.061-.9.01-.096.06-.188.098-.301-.149-.096-.115-.279-.108-.457.003-.076-.022-.153-.02-.23.01-.34.018-.682.038-1.022.005-.084.053-.164.081-.247-.109-.053-.093-.381.046-.567-.123-.04-.109-.129-.097-.232.015-.125.005-.253.01-.38.014-.316.031-.633.042-.949.003-.089-.017-.18-.018-.27 0-.191 0-.383.006-.574.001-.036.034-.079.065-.103.058-.046.127-.081.197-.125l-.232-.089.02-.048c-.024-.054-.057-.095-.057-.137-.005-.23.004-.46-.004-.69-.009-.244-.039-.487-.047-.732-.005-.145.02-.291.022-.436.003-.169.008-.335-.058-.501-.03-.075.008-.198.054-.277.057-.098.166-.128.286-.121.234.015.467.016.701.024.192.007.386.032.578.019.417-.027.828.091 1.253-.006.3-.068.624-.032.935-.019.39.016.778.054 1.165.084.047.004.093.019.14.027.17.026.34.047.508.079.172.034.341.078.51.12.401.098.802.196 1.202.296.3.076.584.198.86.339.244.127.492.249.731.386.115.065.22.151.315.242.2.186.397.373.58.575.112.127.194.283.29.427.101.152.23.293.295.459.191.499.395.993.53 1.516.097.379.18.756.196 1.145.006.188-.023.379-.05.567-.055.351-.109.702-.183 1.049a3.273 3.273 0 0 1-.546 1.247c-.168.231-.346.45-.552.654-.162.16-.316.322-.504.452-.156.106-.304.224-.457.334-.176.125-.349.253-.533.366-.11.068-.083.134-.028.211.164.229.322.462.496.682.255.325.478.667.68 1.028.143.256.335.485.5.729.132.199.253.405.385.605.216.325.436.649.66.97.045.065.112.115.175.177-.097.089-.179.143-.307.135-.107-.007-.217.032-.325.047-.196.026-.392.072-.586.068-.17-.004-.339-.072-.51-.098-.145-.022-.298-.057-.435-.028-.25.053-.496.044-.736-.008a5.098 5.098 0 0 1-.744-.225.715.715 0 0 1-.426-.505c-.07-.272-.262-.457-.397-.682a2.409 2.409 0 0 0-.153-.225c-.084-.112-.173-.22-.259-.329-.04-.051-.084-.099-.123-.151-.116-.162-.229-.325-.344-.486-.087-.121-.175-.24-.269-.368l.077-.051c-.008-.007-.015-.019-.02-.018-.092.022-.153-.005-.196-.094-.069-.141-.149-.275-.227-.411-.029-.052-.065-.101-.099-.151a9.689 9.689 0 0 0-.118-.169c-.083.03-.187.082-.297.107-.212.046-.424.09-.639.113-.204.022-.41.016-.616.023-.013 0-.027-.001-.039.004-.073.025-.204.249-.209.337-.008.189-.036.377-.035.566 0 .199.028.398.037.597.01.174.01.349.017.523.002.064.017.128.016.191-.006.378-.012.756-.028 1.134-.002.044-.053.11-.094.126a1.956 1.956 0 0 1-.787.141c-.177-.007-.358.022-.53-.037-.225-.077-.448-.066-.68-.035-.2.026-.407.002-.61.012-.23.012-.52-.236-.522-.461a66.98 66.98 0 0 1 .002-1.098c.001-.048.03-.095.047-.144-.012-.013-.045-.033-.045-.052 0-.224.011-.448.007-.672-.003-.218-.022-.435-.027-.654-.004-.174.005-.349.007-.523l.007-.681c0-.018-.005-.037.001-.052.09-.23-.027-.451-.016-.664l.12-.118-.02-.018-.147.056v-.13zm55.993-2.303c-.12-.04-.202.002-.275.09-.214.25-.434.496-.644.75-.123.147-.231.307-.351.457-.238.295-.457.603-.721.877-.281.291-.546.6-.825.893-.244.255-.5.494-.742.75-.212.227-.397.48-.616.698-.108.108-.156.284-.334.32-.05.01-.099.028-.149.031-.113.005-.23.012-.343-.002a.299.299 0 0 1-.164-.093c-.242-.267-.478-.539-.716-.808-.15-.17-.306-.336-.45-.51-.231-.28-.452-.568-.678-.85-.029-.037-.08-.06-.096-.098-.04-.09-.065-.189-.099-.29l-.055.034c-.002-.03-.005-.055-.009-.086l-.104.02c.012-.052.012-.1.034-.128.077-.096.012-.162-.053-.204-.034-.023-.103.01-.166.02-.142-.162-.303-.35-.471-.53-.098-.103-.214-.184-.31-.286-.132-.14-.253-.29-.377-.439-.058-.07-.113-.145-.19-.246 0 .286 0 .533.002.781 0 .102.008.205.014.308.017.378.038.756.048 1.134.006.204-.01.41-.012.614-.002.114.012.23.007.342-.019.47-.045.938-.064 1.408-.014.326-.019.652-.031.98-.013.317-.031.635-.046.953-.009.162-.012.326-.03.488a.285.285 0 0 1-.083.162c-.084.082-.182.152-.279.222-.024.017-.065.017-.099.014-.156-.012-.315-.052-.469-.038a3.931 3.931 0 0 1-.728-.015c-.298-.028-.599-.047-.896-.09-.1-.016-.197-.034-.298-.024a.075.075 0 0 1-.058-.022c-.08-.088-.166-.174-.228-.274-.02-.033.01-.123.046-.16.08-.085.046-.157.002-.233a.627.627 0 0 0-.07-.092c-.188-.216-.144-.483-.15-.734a25.674 25.674 0 0 1 0-1.415c.014-.542.055-1.083.077-1.624.01-.226-.029-.458.007-.678.073-.44-.017-.873-.01-1.309.006-.422-.026-.844-.04-1.267-.007-.17.013-.343-.014-.509-.065-.407.002-.81.008-1.215.007-.493.052-.984.072-1.476.016-.344.02-.689.03-1.034.007-.295.022-.589.02-.884-.002-.175-.036-.35-.043-.526-.003-.127.014-.255.022-.383.007-.146.023-.292.02-.438-.002-.15-.019-.3-.03-.456.209-.06.404-.123.603-.173.036-.009.096.015.123.044.142.17.28.346.42.518.14.172.284.344.425.515.31.366.615.733.926 1.096.28.325.561.648.846.968.38.427.757.857 1.147 1.274.27.29.558.558.835.84.084.083.16.177.236.27.395.486.788.975 1.184 1.462.137.17.276.337.418.502.075.088.154.175.245.245.029.023.123.01.152-.02.12-.127.226-.268.341-.4.038-.044.091-.076.132-.118.462-.469.928-.934 1.381-1.41.236-.249.445-.523.673-.78.144-.163.307-.312.452-.474.165-.18.319-.372.482-.556.183-.208.41-.39.546-.625.217-.373.553-.63.827-.949.205-.239.447-.448.663-.679.125-.135.226-.292.349-.43.296-.337.589-.676.9-.999.204-.213.492-.24.772-.254.025 0 .08.056.08.087-.002.34-.02.68-.016 1.018.005.387.024.774.048 1.16.03.438.034.87-.043 1.306-.031.181-.068.373.012.568.055.13.058.286.053.43-.017.484-.058.97-.07 1.454-.013.518-.002 1.036-.005 1.554-.002.254-.027.508-.017.76.02.422.009.846.11 1.263.037.147.014.308.025.462.028.39.067.78.086 1.17.01.2-.022.402-.022.603.003.348.027.696.024 1.043-.004.221-.053.441-.059.662-.008.304.005.61.007.913.002.077-.025.127-.097.177a.654.654 0 0 1-.58.1c-.196-.048-.413-.018-.621-.014-.246.004-.491.021-.736.025-.265.005-.53 0-.796.001-.262 0-.274-.023-.322-.319-.067-.41-.017-.822-.02-1.233 0-.109-.03-.219-.03-.328 0-.177.017-.354.024-.53l.014-.546c.007-.223.017-.447.019-.67.002-.25-.004-.5-.005-.75 0-.156.003-.31.005-.467l.008-.546.005-.563c.002-.235 0-.47.009-.704.008-.274.024-.548.04-.833zm-39.836.67c.106.34.073.69.219 1.014.13.29.202.606.32.902.126.307.283.6.548.818.154.128.314.251.455.392.288.291.586.567.96.745.215.103.423.237.65.294a7.1 7.1 0 0 0 1.165.194c.482.037.956-.05 1.42-.186.118-.035.24-.06.357-.104a3.934 3.934 0 0 0 1.21-.693c.192-.163.394-.319.559-.507.305-.348.57-.725.747-1.158.05-.122.11-.239.16-.36.027-.067.036-.14.066-.204.119-.244.124-.506.139-.769.007-.147.04-.293.07-.437.028-.127.1-.254.094-.377-.02-.269-.076-.536-.116-.804-.017-.117-.075-.248-.042-.349.057-.175.012-.347-.02-.495-.06-.28-.184-.55-.313-.81a4.35 4.35 0 0 0-.768-1.06c-.24-.25-.501-.482-.74-.734a1.317 1.317 0 0 0-.694-.4c-.203-.043-.408-.07-.612-.105-.182-.03-.361-.073-.544-.085-.18-.012-.348-.145-.537-.053-.318-.079-.622.031-.931.074-.192.027-.378.064-.555.17-.246.145-.533.217-.774.367-.318.198-.636.411-.903.67-.27.26-.513.564-.702.886-.236.402-.406.841-.598 1.267-.046.1-.051.22-.104.313-.15.261-.111.552-.151.83-.02.135.01.277.004.416-.004.116-.026.231-.04.337zm4.397 7.104c-.555-.03-1.034-.052-1.515-.126a5.807 5.807 0 0 1-1.383-.407c-.327-.138-.681-.243-.955-.506-.148-.142-.357-.222-.537-.329-.011-.007-.028-.006-.036-.014-.226-.199-.46-.39-.673-.6-.17-.169-.32-.358-.47-.545a46.03 46.03 0 0 1-.722-.927 6.023 6.023 0 0 1-.693-1.216 8.308 8.308 0 0 1-.32-.927c-.057-.189-.07-.39-.13-.58-.122-.396-.135-.806-.184-1.213-.045-.373-.041-.74.083-1.1a.108.108 0 0 0 .003-.075c-.095-.225-.004-.433.04-.65.069-.346.245-.653.336-.988.084-.31.2-.605.376-.875.124-.192.229-.398.367-.578.165-.214.355-.409.537-.61.149-.162.3-.322.456-.478a5.95 5.95 0 0 1 .35-.322c.202-.17.406-.34.613-.505.123-.099.248-.197.382-.282.18-.114.367-.215.553-.32.234-.136.464-.282.706-.4.253-.123.513-.236.78-.32.142-.045.306-.075.46-.004.02.01.06.012.072 0 .08-.088.18-.049.277-.059.169-.015.337-.046.504-.078.22-.043.437-.107.659-.134.123-.016.253.022.379.037.162.02.327.027.485.064.375.087.772.047 1.137.2.255.107.529.128.8.165.137.02.265.094.395.15.23.1.466.19.684.312.259.146.503.32.749.487.13.088.252.19.373.291.097.082.186.173.278.261.297.28.599.554.845.885.149.2.324.382.482.576.032.038.035.097.062.14.085.13.179.254.262.386.036.056.088.095.089.187 0 .1.082.198.124.3.05.122.104.246.149.372.074.21.145.42.21.633.02.07 0 .153.027.218.07.168.089.341.105.52.034.376.092.75.125 1.126.032.358.077.72.059 1.077-.018.36-.088.72-.17 1.072-.087.373-.204.74-.332 1.1-.102.291-.212.586-.372.85-.208.344-.476.654-.702.991a2.514 2.514 0 0 1-.592.64c-.41.3-.75.686-1.203.927-.194.104-.37.245-.57.334a7.895 7.895 0 0 1-.946.36c-.356.107-.72.19-1.085.256-.318.058-.643.072-.964.117-.297.041-.592.097-.82.134zm16.556-4.332c.059-.103.039-.209.023-.32l-.007-.053v-.002a.072.072 0 0 0 0-.021c-.001-.023-.007-.048-.005-.072a.21.21 0 0 0-.051-.157.117.117 0 0 0-.006-.081c-.04-.103-.09-.202-.125-.305-.05-.141-.076-.292-.138-.426l-.007-.017c-.108-.444-.277-.866-.458-1.298-.28-.665-.708-1.475-.76-2.203a.269.269 0 0 0-.083-.182 5.753 5.753 0 0 0-.01-.053l-.033-.002-.01.015c-.132-.076-.32-.039-.382.112a.248.248 0 0 0-.06.171c0 .058-.005.115-.013.171-.03.081-.06.163-.088.244-.068.192-.137.384-.203.577-.053.156-.101.314-.152.47-.054.161-.11.322-.163.482-.07.201-.132.403-.206.602-.117.322-.241.64-.36.962-.023.063-.033.132-.055.196-.043.133-.086.265-.133.396-.063.168-.125.336-.196.5-.05.116-.021.19.106.212.059.011.122 0 .182.007.147.017.29.039.437.057.043.005.097-.013.128.007.155.097.315.054.476.032a.587.587 0 0 1 .139-.001c.273.029.545.066.818.087.188.014.378.017.566.001a.952.952 0 0 0 .077-.01.27.27 0 0 0 .196.088c.204.003.437.024.556-.186zm4.74 3.623c.064.148.112.302.166.455a1.504 1.504 0 0 1-.874.103c-.155-.025-.306-.074-.46-.11-.024-.006-.054-.014-.075-.005-.183.083-.364.005-.546.006-.228.002-.457.039-.683.023a2.516 2.516 0 0 1-.604-.136c-.063-.021-.108-.124-.145-.198-.064-.124-.092-.272-.176-.378-.082-.104-.07-.208-.077-.317-.011-.136-.017-.273-.026-.426-.177.011-.33.025-.482.03a41.88 41.88 0 0 1-.94.023c-.19.003-.384-.029-.572-.004-.284.039-.553-.042-.83-.053-.167-.008-.335-.011-.503-.016l-.81-.024-1.761-.055c-.033-.001-.068-.021-.1-.017-.036.005-.086.02-.1.047-.12.217-.236.435-.341.658-.085.182-.155.371-.23.557-.03.074-.043.16-.09.222-.043.06-.115.127-.182.137-.182.026-.366.025-.551.031-.297.009-.594.022-.891.018-.173-.002-.347-.038-.522-.049-.218-.015-.438-.015-.655-.033a.678.678 0 0 1-.251-.077c-.023-.012-.03-.107-.008-.139.055-.081.132-.144.194-.219.049-.058.126-.124.124-.185-.006-.22.147-.356.237-.526.068-.13.165-.259.18-.397a1.63 1.63 0 0 1 .214-.618c.137-.245.234-.514.349-.772.089-.202.18-.403.264-.608.056-.138.088-.286.146-.423.127-.3.265-.596.395-.895.063-.14.104-.292.182-.422.2-.338.313-.714.472-1.069.182-.406.348-.818.538-1.22.17-.363.373-.711.54-1.076.155-.341.279-.696.424-1.043.058-.139.14-.269.204-.406.157-.339.318-.676.462-1.02.169-.404.319-.814.479-1.221.129-.326.264-.65.393-.975.128-.325.25-.652.379-.977.048-.121.074-.276.164-.35.116-.097.286-.132.436-.185.018-.006.07.035.078.062.123.406.325.777.514 1.154.118.235.192.493.3.734.132.296.276.586.419.876.209.428.43.851.63 1.283.269.574.52 1.156.785 1.732.185.402.385.797.569 1.199.117.256.215.522.33.779.089.198.2.387.287.585.13.301.238.612.375.91.122.266.279.518.41.781.143.29.34.551.433.871.065.222.199.422.289.638.083.2.179.403.212.614.039.245.17.442.262.66.138.326.279.65.424.973.072.163.158.319.227.483zm-260.428.763c-.186.06-.337.183-.542.133-.164-.04-.191-.056-.223-.23a1.263 1.263 0 0 0-.101-.343c-.23-.453-.471-.898-.7-1.351-.094-.183-.166-.378-.252-.565-.127-.275-.264-.544-.385-.821-.234-.536-.521-1.06-.671-1.618-.166-.618-.442-1.175-.71-1.743-.142-.303-.273-.61-.335-.946-.078-.423-.197-.84-.305-1.256-.018-.067-.071-.125-.133-.231-.076.104-.135.165-.168.237-.305.658-.602 1.319-.91 1.977-.206.445-.448.876-.628 1.33-.186.468-.37.93-.615 1.368-.144.256-.286.513-.418.775-.191.377-.368.762-.558 1.139-.077.154-.175.298-.26.448a1.777 1.777 0 0 0-.128.254c-.135.354-.267.71-.394 1.067-.115.323-.308.445-.65.41-.115-.012-.158-.083-.191-.18-.166-.48-.323-.963-.506-1.437-.148-.382-.337-.75-.49-1.131-.082-.205-.13-.426-.192-.64-.008-.024-.013-.052-.027-.072-.24-.337-.324-.74-.465-1.118-.116-.314-.2-.641-.304-.96a6.622 6.622 0 0 0-.178-.455c-.073-.175-.165-.344-.226-.523-.17-.506-.317-1.02-.492-1.523-.122-.35-.283-.684-.414-1.031-.16-.428-.29-.868-.464-1.291-.333-.804-.524-1.656-.873-2.457-.21-.481-.421-.964-.62-1.45-.018-.048-.031-.11-.067-.138C.83 1.49.856 1.369.879 1.265c.225-.022.433-.04.64-.065.466-.06.929.026 1.395.014.396-.01.793.014 1.189.03.164.008.267.11.317.264.123.386.24.773.369 1.157.189.565.382 1.128.58 1.69.247.699.5 1.396.752 2.093.115.317.24.63.347.949.095.286.165.58.255.867.088.276.188.548.296.86.067-.07.122-.103.137-.15.058-.18.098-.364.156-.544.066-.204.133-.41.22-.604.197-.44.403-.874.614-1.305.126-.256.268-.503.405-.753.099-.18.21-.355.303-.54.183-.371.35-.75.537-1.12.123-.246.254-.49.4-.721.232-.366.4-.76.567-1.16.129-.308.277-.611.427-.911.083-.166.293-.221.592-.17-.061.166-.003.308.077.455.432.786.75 1.626 1.124 2.44.22.477.459.946.683 1.422.302.64.595 1.284.898 1.923.182.383.378.758.562 1.138.053.108.092.224.128.339.076.243.074.243.322.41.154-.365.308-.722.399-1.111.1-.424.14-.86.312-1.272.189-.452.302-.935.462-1.4.104-.3.234-.592.35-.888.098-.248.185-.5.288-.745.126-.3.278-.59.392-.893.08-.214.109-.448.173-.67.08-.281.166-.561.26-.838a.339.339 0 0 1 .309-.243c.153-.01.308-.016.46-.015.352 0 .7.083 1.055.02.089-.016.186.014.279.017.085.002.17-.002.255-.004.23-.006.46-.007.647.118-.22.57-.411 1.123-.646 1.657-.296.676-.48 1.386-.701 2.084-.112.354-.253.699-.385 1.046a387.88 387.88 0 0 1-.687 1.79c-.241.628-.486 1.256-.724 1.886-.068.177-.108.364-.177.54-.178.458-.373.91-.548 1.37-.12.314-.236.632-.322.956a15.2 15.2 0 0 1-.594 1.762c-.125.312-.212.638-.312.959-.06.189-.111.38-.164.564zm38.438-7.27h.039c0 .2.004.399-.001.598-.008.265.015.316.252.414.062.025.135.03.203.029.31-.006.622-.006.932-.03.533-.038 1.069-.07 1.569-.292.323-.143.655-.268.925-.51.43-.381.796-1.257.762-1.836-.01-.155-.014-.31-.023-.464-.03-.53-.113-1.048-.351-1.53-.035-.068-.067-.148-.125-.193a4.144 4.144 0 0 0-1.111-.642c-.452-.166-.925-.203-1.398-.233-.378-.025-.76-.006-1.14-.022-.253-.01-.325.243-.511.327-.018.009-.021.064-.021.098.002.086-.007.177.018.257.08.254.063.51.052.77-.017.415-.03.83-.035 1.244-.005.355.008.709.003 1.063-.005.318-.025.636-.04.953zm.023 7.253c-.318 0-.61-.002-.902 0-.233.003-.467.024-.7.013a10.819 10.819 0 0 1-.951-.084c-.121-.016-.234-.091-.32-.126-.012-.18-.01-.316-.036-.447-.06-.296.017-.58.064-.867.022-.132.002-.271-.003-.407-.001-.034-.017-.067-.018-.102-.02-.456-.055-.913-.053-1.37.003-.73.034-1.461.049-2.191.003-.137-.022-.275-.02-.412.004-.126.029-.252.042-.378.004-.042.01-.087 0-.127-.153-.658-.072-1.325-.071-1.988 0-.665-.003-1.331-.002-1.996 0-.164.019-.327.02-.491.003-.395-.003-.79 0-1.186.003-.188.035-.377.028-.565-.014-.414-.045-.827-.07-1.24-.003-.07-.016-.138-.012-.207.012-.21.104-.322.308-.36.135-.023.273-.034.41-.041.19-.01.379-.004.558-.09.068-.031.152-.034.228-.037.294-.01.587-.02.88-.021.294-.001.588.004.88.013.406.013.812.033 1.217.049.129.006.259.008.388.01.609.017 1.196.158 1.78.313.913.24 1.765.61 2.483 1.232.605.524 1.068 1.154 1.262 1.949.088.359.17.719.253 1.079.01.042.02.09.009.128-.106.314-.043.633-.04.95a5.064 5.064 0 0 1-.448 2.137c-.17.38-.34.759-.643 1.053-.215.208-.457.389-.688.58-.051.044-.135.069-.157.122-.092.218-.28.32-.468.427-.087.05-.166.114-.244.168.018.05.023.076.036.097.356.54.719 1.076 1.068 1.62.205.32.373.663.584.978.264.394.55.773.834 1.153.183.245.23.318.263.489-.014.009-.032.029-.041.025-.173-.065-.33-.022-.49.054a.572.572 0 0 1-.227.04c-.388.004-.777 0-1.166.005a1.97 1.97 0 0 0-.43.05c-.23.052-.476.034-.716.03-.104 0-.188-.053-.253-.152-.218-.33-.446-.654-.674-.978-.274-.387-.554-.77-.826-1.157-.07-.098-.112-.212-.176-.312a4.93 4.93 0 0 0-.275-.393c-.096-.122-.238-.216-.303-.35-.102-.211-.295-.281-.475-.301-.393-.044-.791-.025-1.186-.048-.245-.014-.343.192-.502.304-.04.027-.035.127-.04.194-.017.285-.04.569-.041.853 0 .328.026.656.032.984.008.388.008.777.01 1.165 0 .042-.01.083-.02.16zM32.38 11.473l-6.521-.033a3.953 3.953 0 0 0-.144 1.173c.008.388.044.776.05 1.164.005.36-.011.722-.022 1.083-.01.31-.025.62-.038.94-.336.123-.665.179-1.014.109-.208-.042-.412-.1-.631.015-.101.053-.254.008-.383.008-.154-.001-.308 0-.462-.004-.118-.005-.235-.018-.374-.03v-.616c0-1.237-.002-2.474-.001-3.711 0-.65-.002-1.298.008-1.947.004-.256.057-.512.059-.77a4.55 4.55 0 0 1 .055-.717c.038-.234.012-.47-.052-.712-.074-.278-.062-.581-.07-.874-.01-.311.023-.625-.002-.934-.032-.408.078-.79.165-1.174.05-.23.047-.46-.032-.665-.11-.284-.107-.577-.122-.867-.023-.44-.004-.882-.01-1.323 0-.136.059-.216.185-.242.157-.034.316-.072.476-.081.413-.023.829-.006 1.238-.055.28-.033.55 0 .825-.001.197-.002.268.082.273.285.012.535.037 1.07.036 1.605-.001.415-.035.83-.052 1.244-.005.12.002.24-.002.362-.016.432-.04.863-.051 1.295-.015.542-.023 1.083-.033 1.625-.006.285-.011.57-.015.856-.002.11 0 .222 0 .373.215-.01.412-.001.603-.031.379-.06.754-.065 1.137-.033.264.02.533-.025.799-.028.164-.002.327.034.49.03.362-.007.724-.026 1.086-.047.524-.03 1.048-.07 1.573-.097.18-.01.362.006.543.018.128.009.255.032.387.05.02-.048.044-.08.043-.11-.012-.283-.03-.567-.042-.85-.005-.121.003-.242-.004-.362-.03-.525-.074-1.05-.094-1.575-.015-.397.016-.796-.008-1.191-.02-.316-.092-.628-.14-.942-.02-.136-.062-.273-.053-.406.027-.414.074-.826.112-1.238.013-.154.009-.31.033-.461.032-.201.153-.313.365-.341.417-.056.837-.057 1.256-.084.332-.021.653.035.977.082.122.017.248.003.38.003.006.074.014.117.01.158-.016.188-.052.376-.054.564-.006 1.072-.001 2.144-.008 3.216-.004.742-.03 1.485-.031 2.228-.001.284.04.568.059.853.033.526.077 1.052.089 1.579.01.518-.015 1.036-.022 1.554-.006.44-.011.88-.012 1.32-.001.388.006.776.003 1.164-.003.362-.014.724-.024 1.086-.006.215-.013.43-.025.646-.016.247-.23.416-.466.34-.201-.064-.39-.047-.588-.02-.161.024-.327.023-.491.025-.267 0-.535-.008-.802-.005-.28.003-.527-.21-.535-.488-.007-.231.012-.464.015-.696.004-.24-.006-.481.007-.721.025-.455.072-.91.09-1.365.015-.387.003-.775.003-1.206zm41.583-7.685l-6.557.042c-.024.327-.056.634-.066.942a128.97 128.97 0 0 0-.047 2.152c-.002.11.029.22.043.33.008.067.015.135.015.201.002.344 0 .688 0 1.065.237.025.473.066.712.072.82.023 1.64.04 2.462.045.293.002.587-.027.879-.059a4.17 4.17 0 0 1 1.138.009c.09.015.188.011.282.003.227-.019.315.038.322.257.018.551.026 1.102.039 1.652 0 .035.018.081.002.101-.114.138-.055.273-.005.411.01.029 0 .065 0 .109-.276-.019-.54-.04-.805-.052-.146-.007-.296-.016-.44.008-.355.057-.707.017-1.06.004-.484-.018-.968-.021-1.451-.03a21.359 21.359 0 0 0-.62-.005c-.068.001-.135.025-.203.029-.126.006-.253.013-.38.008-.264-.01-.53-.029-.823-.046v2.21c.095.013.187.036.279.037.959.009 1.919.022 2.878.022.76-.001 1.522-.02 2.283-.027.147-.001.302.052.438.019.223-.054.446-.026.664-.059.177-.027.32.034.507.115l.015 1.165c.005.319.007.638.02.957.015.325-.031.385-.35.4-.12.006-.242.017-.361 0a4.714 4.714 0 0 0-1.163-.006c-.23.024-.466-.034-.698-.025-.544.023-1.086.073-1.63.094-.594.024-1.19.037-1.785.04-.734.004-1.47-.004-2.204-.008-.474-.003-.947-.01-1.421-.012-.07 0-.138.017-.206.023-.233.023-.357-.083-.37-.32-.007-.139-.007-.277-.007-.415 0-.363-.004-.725.004-1.087.007-.345.039-.69.04-1.035.003-.717-.01-1.435-.012-2.152-.004-.794-.065-1.587-.01-2.383.04-.61.018-1.224.029-1.836.008-.397.03-.794.038-1.191.007-.387.004-.774 0-1.161-.002-.32-.017-.639-.02-.958-.002-.215.009-.429.007-.644-.002-.188-.026-.377-.018-.565.012-.316.042-.632.067-.978.363-.039.694-.085 1.026-.105.257-.015.518.023.774.001.484-.042.963.02 1.444.039.163.006.327-.027.49-.024.717.013 1.434.038 2.15.047.7.008 1.4.009 2.102-.001.404-.005.809-.042 1.214-.056.31-.011.429.138.388.455a2.277 2.277 0 0 0-.012.387c.015.422.046.844.049 1.267.002.175-.05.352-.076.522zM48.08 13.203c.243.186.21.426.21.655.002.5.004 1 .013 1.5.002.135-.05.26-.184.308a1.04 1.04 0 0 1-.351.076c-.231 0-.462-.03-.694-.043-.059-.003-.129-.012-.178.013-.178.088-.352.034-.53.006-.136-.02-.273-.024-.41-.034-.05-.002-.107.013-.153-.003-.18-.06-.349-.09-.5.07-.03.03-.098.031-.148.032-.688.02-1.378.067-2.066.045-.518-.018-1.03.018-1.546.015-.308-.003-.618.052-.927.073-.224.015-.448.015-.672.015-.389 0-.776-.005-1.163-.01-.034 0-.07.005-.103.002-.32-.032-.354-.09-.34-.412.014-.336-.008-.674-.008-1.012.005-1.123.018-2.248.017-3.373 0-1.73-.015-3.46-.017-5.191-.002-1.445.008-2.89.013-4.336 0-.083.014-.168.021-.247.383-.161.773-.122 1.154-.137.327-.015.656.01.98-.018.226-.02.42.091.631.097.371.012.742.015 1.113-.002a14.919 14.919 0 0 1 1.554.008c.69.04 1.384.018 2.076.02.508.002 1.015-.092 1.525-.017.09.013.188-.015.28-.033.27-.053.33-.01.339.258.014.458.03.915.038 1.372.005.257.002.513-.004.77-.003.185-.117.308-.303.308-.18 0-.361-.028-.542-.03-.528-.007-1.055-.004-1.583-.008-.802-.008-1.605-.012-2.408-.029-.31-.005-.619-.053-.929-.059-.258-.003-.517.022-.773.045-.206.017-.252.083-.245.284.017.638.032 1.278.048 1.916.014.457.03.914.04 1.371.005.216-.006.433-.004.65.002.103.002.21.029.308.032.118.093.215.248.216.71.012 1.419.04 2.128.045.36.003.723-.042 1.085-.045.543-.004 1.087.008 1.63.01.172 0 .344-.016.517-.008.196.007.223.025.227.203.008.393.102.782-.02 1.182-.064.214-.026.463-.024.695 0 .238-.134.418-.367.427-.196.006-.395.037-.587-.058-.116-.057-.244-.036-.378-.015-.244.039-.497.024-.746.027-.535.006-1.07.007-1.602.071a2.96 2.96 0 0 1-.745-.035c-.319-.045-.63-.073-.947-.002a1.154 1.154 0 0 0-.346.15c-.163.096-.17.222-.169.367.005.388.019.776.028 1.165 0 .043-.003.087.002.13.032.312.089.373.4.368.83-.013 1.66-.046 2.49-.05.465-.002.931.02 1.395.067.425.04.84.046 1.261-.044.178-.037.375.017.564.02.222.004.452.043.656-.11zm89.175-6.894c.034.009.059.022.082.02.413-.065.823-.014 1.234.014.498.034.996.04 1.487-.088.354-.092.595-.283.685-.655.05-.208.147-.403.207-.61a.462.462 0 0 0-.008-.25c-.044-.138-.111-.27-.171-.404a.959.959 0 0 0-.675-.553 1.993 1.993 0 0 0-.462-.056c-.672-.002-1.346-.01-2.02.013-.421.015-.552.08-.547.552l.02 1.502c0 .043-.005.107.019.125.136.098.1.262.149.39zm2.302 6.61v.027c.233-.02.47-.014.696-.063.373-.085.734-.208.92-.595.04-.085.117-.152.166-.232.113-.182.218-.37.329-.552.12-.2.118-.426.146-.649a1.125 1.125 0 0 0-.19-.807c-.086-.125-.213-.22-.315-.334a1.723 1.723 0 0 0-.964-.563c-.294-.058-.601-.06-.902-.064-.388-.003-.778.052-1.163.02a4.796 4.796 0 0 0-.822.014c-.22.02-.307.11-.306.325.002.276.013.553.007.827-.012.638-.031 1.277-.048 1.914-.003.156-.013.31-.01.466.006.184.053.233.229.236.742.012 1.485.02 2.227.03zm-5.484 2.625v-1.005c-.001-.223-.006-.447-.001-.671.015-.666.04-1.332.047-1.997.008-.7-.006-1.399-.003-2.098.002-.397.02-.795.025-1.192.003-.24-.01-.482-.013-.723-.02-1.088-.036-2.176-.058-3.265-.015-.766-.042-1.534-.056-2.302-.003-.144.035-.29.04-.435.006-.135.022-.28-.018-.406-.103-.323.06-.492.354-.5.54-.012 1.08-.013 1.619-.025.12-.003.24-.045.359-.039.523.027 1.046.067 1.57.094.206.01.415.015.62-.002a9.024 9.024 0 0 1 1.396.008c.44.034.88.052 1.307.168.148.039.289.104.43.162.12.05.234.125.357.153.447.103.742.429 1.063.712.186.165.362.35.502.552.145.211.276.445.35.687.095.31.142.639.18.963a2.12 2.12 0 0 1-.017.615 4.938 4.938 0 0 1-.225.85c-.21.563-.546 1.034-1.09 1.33-.074.04-.138.098-.221.158l.093.13a6.194 6.194 0 0 0-.098.11c.019.03.027.059.046.07.249.155.51.292.747.465.575.42 1.123.876 1.372 1.576.156.44.225.902.25 1.37.023.415-.104.798-.194 1.194-.212.939-.79 1.64-1.438 2.293-.354.357-.798.61-1.255.817-.33.149-.692.208-1.053.247-.447.046-.893.092-1.341.117-.256.017-.515-.016-.774-.019-.283-.001-.567.006-.851.008-.38 0-.76-.005-1.14-.002-.447.003-.891-.06-1.342-.007-.24.028-.495-.045-.736-.1-.142-.034-.268-.088-.425-.048-.11.027-.234-.006-.378-.013zm78.937-6.905c-.009.33.053.642.201.932.19.368.386.733.588 1.094.232.415.493.803.86 1.124.512.45 1.057.825 1.707 1.047.497.17 1.004.245 1.524.268.12.006.241-.01.36-.027.782-.104 1.49-.429 2.19-.763.383-.183.63-.528.886-.847.066-.08.048-.226.072-.34a.295.295 0 0 1 .04-.096c.26-.414.425-.868.551-1.335.168-.62.412-1.232.282-1.898a.291.291 0 0 1 0-.128.672.672 0 0 0-.06-.477c-.069-.148-.16-.285-.226-.434-.085-.198-.142-.409-.233-.604-.336-.724-.79-1.357-1.453-1.819-.254-.177-.515-.359-.798-.475-.42-.174-.863-.292-1.298-.429a.346.346 0 0 0-.178-.004c-.32.077-.647.028-.97.074-.579.082-1.144.181-1.647.498a8.252 8.252 0 0 0-.493.327c-.118.086-.214.203-.334.283-.25.167-.43.394-.58.647-.202.34-.404.68-.598 1.025a1.487 1.487 0 0 0-.19.612c-.029.326-.068.651-.105.975-.03.257-.066.513-.098.77zm4.815-7.9c.268 0 .537-.013.804.004.318.02.635.064.951.104.056.008.108.05.162.074.055.023.114.064.167.061.343-.022.645.133.944.251.365.145.72.332 1.031.587.441.36.904.693 1.346 1.052.341.28.647.592.873.98.185.321.423.612.598.937.4.74.621 1.537.692 2.372.04.464.056.932.051 1.398a6.553 6.553 0 0 1-.249 1.661c-.07.257-.122.522-.216.77-.124.33-.279.648-.425.968-.046.101-.108.196-.165.292-.022.037-.038.086-.07.104-.254.143-.388.391-.535.62-.439.688-.974 1.284-1.684 1.69-.514.293-1.044.57-1.597.775-.36.135-.718.328-1.123.33-.193.148-.433.104-.649.134-.295.04-.599.033-.898.014-.455-.03-.914-.059-1.36-.144-.5-.093-.995-.23-1.45-.463-.53-.27-1.052-.558-1.576-.84-.173-.094-.35-.184-.514-.294a4.037 4.037 0 0 1-.904-.84 14.567 14.567 0 0 1-.496-.66c-.317-.453-.608-.916-.769-1.455-.108-.359-.31-.688-.378-1.06-.083-.46-.202-.919-.217-1.38-.015-.505.056-1.014.115-1.518.053-.436.152-.865.33-1.27.005-.016.012-.034.012-.05-.003-.46.25-.814.49-1.174.322-.48.623-.976.957-1.448.187-.265.416-.503.64-.74.187-.202.385-.395.593-.573a2.434 2.434 0 0 1 1.016-.537c.14-.034.274-.093.408-.149.446-.186.89-.37 1.378-.427.127-.014.247-.089.373-.098.447-.035.895-.054 1.343-.08l.001.022zM148.26.976c.166.017.33.036.492.05a.895.895 0 0 0 .18-.005c.212-.024.425-.074.637-.068.166.003.334.065.493.122.042.015.075.112.074.171a5.603 5.603 0 0 1-.04.516c-.073.638-.05 1.277-.028 1.916.021.664.018 1.329.02 1.993 0 .146-.03.292-.048.438-.083.723-.02 1.448 0 2.171.02.769.055 1.537.101 2.305.025.44.072.882.307 1.273.072.117.145.242.247.329.39.332.81.62 1.314.756.033.009.07.012.1.026.306.138.62.195.958.133.236-.042.48-.046.717-.08.267-.038.527-.112.747-.275.233-.173.507-.305.658-.572.08-.141.143-.293.208-.444a5.479 5.479 0 0 0 .415-1.724c.034-.447.084-.893.115-1.34.023-.324.011-.652.046-.975.027-.247.074-.491.067-.741-.007-.258 0-.517-.026-.773-.044-.412-.068-.82.024-1.23a.539.539 0 0 0-.005-.282c-.07-.204-.056-.407-.042-.614.003-.052.008-.106-.002-.156-.096-.454-.006-.906.016-1.359a.353.353 0 0 0-.014-.149c-.106-.281-.09-.575-.104-.866-.02-.385.027-.437.424-.463.524-.034 1.053-.04 1.572-.113.255-.036.496.008.743 0 .074-.002.151.031.224.057.09.032.123.11.076.185-.072.116-.052.232-.037.351.06.487.03.977.037 1.466.017 1.132.003 2.264.088 3.395.021.283-.009.57-.016.855-.005.215-.03.432-.012.646.053.615.02 1.225-.03 1.838-.028.351.003.707.018 1.061.026.626-.197 1.182-.47 1.726-.108.216-.21.435-.319.651-.283.559-.61 1.087-1.128 1.463-.837.606-1.753 1.03-2.78 1.19-.247.039-.497.109-.743.095-.85-.048-1.708-.047-2.553-.182-.458-.073-.868-.278-1.27-.497-.195-.108-.378-.242-.563-.368-.476-.323-.86-.74-1.197-1.203-.316-.436-.512-.934-.69-1.431a3.234 3.234 0 0 1-.22-1.128c.004-.707-.065-1.414-.1-2.121-.01-.181-.005-.363-.01-.544-.006-.207-.02-.413-.025-.621a53.798 53.798 0 0 1-.008-.984c0-.579-.005-1.158.004-1.737.011-.742.034-1.485.05-2.228.012-.5.02-1.001.028-1.502.003-.116.2-.303.357-.32.307-.033.616-.056.923-.083zm42.234 5.562c-.021 0-.041-.003-.062-.005-.038.07-.085.136-.113.21-.114.31-.238.62-.33.938-.09.314-.293.574-.38.89-.073.27-.21.525-.306.79-.097.262-.18.53-.272.796-.025.071-.06.141-.095.211a2.709 2.709 0 0 0-.268.878c.084.008.15.021.216.02.265-.008.53-.033.797-.027.49.007.98.03 1.47.05.25.01.498.033.747.042.087.003.176-.016.315-.031-.112-.229-.2-.412-.292-.592-.111-.213-.212-.426-.181-.68a.319.319 0 0 0-.087-.23c-.127-.132-.178-.29-.221-.458-.027-.109-.081-.21-.118-.315-.188-.536-.382-1.07-.561-1.61-.066-.194-.093-.402-.147-.602-.025-.095-.074-.183-.112-.275zm6.818 8.845c-.266.073-.487.143-.714.188-.173.034-.35.083-.535.01-.09-.034-.206-.021-.307-.009a2.301 2.301 0 0 1-.642 0 .581.581 0 0 0-.282.01c-.17.068-.324.008-.48-.023a.532.532 0 0 1-.408-.325c-.088-.212-.235-.397-.226-.651.004-.088-.085-.183-.14-.27-.03-.05-.08-.09-.117-.138a.535.535 0 0 0-.487-.235c-.703.01-1.407-.045-2.11-.07-.181-.005-.363.022-.544.016-.388-.013-.774-.036-1.162-.055-.423-.024-.845-.05-1.268-.076-.131-.009-.231.018-.276.17-.14.466-.356.896-.606 1.314-.091.152-.148.323-.23.506-.32-.023-.67-.055-1.02-.07-.16-.006-.324.027-.487.04a1.113 1.113 0 0 1-.13.004c-.43-.014-.86-.028-1.29-.05-.067-.003-.132-.046-.23-.082.123-.235.233-.439.333-.646.243-.504.474-1.016.725-1.516.2-.402.429-.79.63-1.19.21-.416.408-.84.603-1.261.29-.628.576-1.256.858-1.887.16-.354.303-.716.459-1.07.25-.57.509-1.134.759-1.704.176-.402.339-.81.516-1.213.179-.41.373-.815.552-1.226.12-.278.227-.56.335-.842.205-.531.406-1.064.61-1.597a.248.248 0 0 1 .238-.17c.12-.004.242-.008.363-.002.215.01.375.096.448.318.118.362.25.719.373 1.079.21.613.494 1.195.8 1.768.182.342.343.696.51 1.046.354.74.713 1.48 1.055 2.225.383.83.747 1.671 1.124 2.506.296.653.602 1.302.896 1.955.16.354.306.713.46 1.07.115.26.245.515.349.778.156.396.37.756.597 1.113.044.069.059.155.098.262zM182.995 8.27c.008.095.02.204.024.313.024.524.07 1.048.058 1.571-.008.312-.11.622-.175.953-.266.027-.521.061-.778.074-.327.017-.654.018-.983.023-.536.007-1.071.005-1.607.022-.283.008-.565.056-.85.07-.197.011-.396-.007-.594-.012-.164-.005-.328-.018-.491-.008a.322.322 0 0 0-.244.113c-.06.068-.198.067-.34.108.024.428.056.873.068 1.318.013.441.007.882.003 1.323-.004.445-.017.891-.026 1.355l-.235.015c-.361.027-.72-.059-1.085 0a4.737 4.737 0 0 1-.851.04c-.213-.005-.426-.052-.638-.087-.11-.018-.156-.089-.155-.203.007-.562.015-1.125.016-1.687.002-.932.09-1.864-.002-2.798-.036-.36-.075-.727-.055-1.087.032-.596.016-1.189 0-1.785a91.421 91.421 0 0 1-.023-2.72c0-.476.03-.95.045-1.425a4.735 4.735 0 0 0-.004-.337c-.015-.387-.044-.774.017-1.162.033-.21-.002-.432.009-.648.007-.143.026-.289.066-.426.05-.169.17-.199.354-.209.723-.038 1.45.048 2.169-.073.035-.006.07-.005.104-.006.699-.028 1.398-.062 2.097-.082.319-.008.639.02.959.017.422-.004.845-.028 1.268-.034.458-.006.917-.009 1.375 0 .293.004.585.033.904.053.037.105.099.213.113.328.033.274.049.551.06.826.016.353.024.706.03 1.06.01.43-.02.45-.436.468-.742.034-1.483.086-2.226.122-.302.015-.605.02-.908.014-.621-.014-1.241-.05-1.862-.053a3.941 3.941 0 0 0-.792.096c-.187.038-.234.127-.238.315-.004.217.004.433-.004.65-.021.638-.055 1.277-.065 1.916-.007.424.02.847.032 1.27 0 .097.059.145.132.203.11.088.183.233.36.185.008-.002.018 0 .026 0 .297-.062.594-.073.899-.063.594.02 1.189-.017 1.784.038.273.025.549.037.825.042.154.003.308-.022.463-.03.112-.008.224-.014.337-.01.34.011.682.027 1.07.044zm-18.09-4.517c0 .272-.006.52.003.77.012.345.04.69.05 1.036.016.527.023 1.055.03 1.582.004.276-.006.552 0 .828.004.127.033.252.052.392.148 0 .276.014.4-.002a6.256 6.256 0 0 1 1.499-.013c.352.039.705.066 1.058.075.24.007.48-.04.72-.036.377.004.754.027 1.13.046.207.01.413.033.619.044.089.005.152.04.175.125.05.173.12.346.134.523.027.396.035.794.03 1.19-.001.25-.04.5-.063.778-.091.005-.191.015-.292.016-1.081.015-2.161.029-3.242.04-.467.004-.935.002-1.402-.003-.145-.002-.292-.026-.437-.033-.137-.005-.274-.001-.426-.001-.072.308-.034.61-.025.91.013.475.038.949.043 1.424.004.456-.01.912-.021 1.368-.006.248-.026.497-.042.773-.308.086-.632.219-.967.147-.336-.073-.671-.036-1.004-.062-.33-.026-.664-.045-.97-.207-.123-.066-.171-.147-.171-.286-.003-.56-.018-1.12-.024-1.68a83.29 83.29 0 0 1-.007-1.322c.003-.423.02-.846.02-1.27-.001-.387-.024-.776-.024-1.164 0-.143.038-.286.06-.43.027-.17.06-.338.079-.51a.187.187 0 0 0-.051-.138c-.114-.105-.1-.235-.082-.362.085-.662.089-1.323.054-1.991-.03-.533.023-1.071.034-1.607.009-.363.017-.726.01-1.09-.012-.828-.034-1.657-.053-2.506.234.01.46.028.69.03.19.004.38-.006.57-.013.56-.021 1.122-.03 1.68-.072.49-.038.982.047 1.47-.073.196-.05.41-.016.617-.028.353-.022.706-.071 1.06-.073.533-.003 1.065.004 1.598.045.513.038 1.03 0 1.547-.003.05 0 .102-.015.152-.01.188.02.21.057.2.25-.008.16 0 .323-.005.485-.005.154-.026.308-.03.463-.003.207.006.414.007.62v.839c-.185 0-.34-.004-.492 0-.622.018-1.244.037-1.865.057-.475.015-.95.035-1.424.047-.77.02-1.538.034-2.307.053-.118.003-.236.019-.364.029zm43.948 11.888c-.367.025-.712.17-1.092.142-.322-.022-.647-.004-.971-.002-.052 0-.105.011-.156.007-.471-.043-.941-.1-1.414-.131-.343-.024-.688-.015-1.032-.02-.078-.002-.156.005-.233-.002a7.74 7.74 0 0 0-1.044-.01c-.318.011-.637-.014-.952.017-.54.055-1.084.006-1.623.12-.227.047-.489-.026-.726-.083-.218-.052-.236-.162-.267-.376a1.592 1.592 0 0 1 .045-.653.22.22 0 0 0 .003-.078c-.018-.144-.043-.287-.059-.433-.024-.213-.058-.425-.058-.638a35.917 35.917 0 0 1 .025-1.737c.013-.287-.01-.567-.019-.85-.008-.302-.009-.602-.023-.903-.032-.725-.084-1.448-.102-2.17-.017-.648.002-1.297.005-1.943l.006-.908c.001-.214.004-.43-.001-.644-.006-.25-.029-.5-.03-.75-.003-.571.002-1.141.009-1.711a.414.414 0 0 1 .052-.224c.173-.244.392-.436.7-.486.338-.058.678-.104 1.018-.155a.72.72 0 0 1 .179-.007c.298.032.595.07.892.107.101.015.201.036.315.055-.019.135-.042.253-.051.37-.014.173-.018.344-.028.515-.014.243-.04.484-.042.725-.006.735-.009 1.47 0 2.205.007.606.059 1.21.039 1.814-.025.814.032 1.624.092 2.433.018.24-.005.482-.011.724-.009.415-.024.83-.03 1.244-.004.354-.004.71.006 1.064.008.25.032.5.057.748.014.16.054.188.217.189.31.003.62.01.931.01.102 0 .205-.02.308-.03.077-.008.154-.019.231-.017 1.124.013 2.248.033 3.372.042.336.003.672-.023 1.008-.038.273-.012.442.134.469.432.017.196.01.396.017.595.015.464.077.93-.032 1.44z"
    fillRule="evenodd" />
</svg>