<?xml version="1.0" encoding="UTF-8"?>
<svg width="40px" height="16px" viewBox="0 0 40 16" version="1.1" xmlns="http://www.w3.org/2000/svg" xmlns:xlink="http://www.w3.org/1999/xlink">
    <!-- Generator: Sketch 57.1 (83088) - https://sketch.com -->
    <title>wordmark-lg</title>
    <desc>Created with Sketch.</desc>
    <g id="Page-1" stroke="none" stroke-width="1" fill="none" fill-rule="evenodd">
        <g id="wordmark-lg" fill="#000000" fill-rule="nonzero">
            <path d="M4.663,15.78 C4.715,15.244 4.743,14.723 4.718,14.197 C4.686,13.535 4.698,12.871 4.692,12.207 C4.687,11.581 4.678,10.953 4.68,10.326 C4.681,9.595 4.664,8.863 4.71,8.134 C4.742,7.608 4.69,7.086 4.708,6.563 C4.725,6.099 4.76,5.635 4.761,5.171 C4.763,4.873 4.72,4.575 4.7,4.277 C4.692,4.152 4.624,4.091 4.508,4.071 C4.441,4.058 4.374,4.044 4.305,4.041 C3.979,4.027 3.655,4.011 3.328,4.005 C2.83,3.994 2.33,3.995 1.832,3.983 C1.578,3.976 1.319,4.013 1.068,3.923 C0.995074899,3.90230114 0.934815054,3.85080636 0.903,3.782 C0.777261326,3.55540973 0.741554299,3.28974946 0.803,3.038 C0.852,2.817 0.813,2.576 0.813,2.343 C0.813,2.249 0.82,2.153 0.808,2.06 C0.798150114,1.96033892 0.771790346,1.86301054 0.73,1.772 C0.606,1.531 0.722,1.291 0.991,1.269 C1.103,1.259 1.216,1.269 1.328,1.269 C1.455,1.268 1.583,1.264 1.711,1.261 C1.796,1.259 1.881,1.257 1.966,1.257 C2.257,1.259 2.556,1.306 2.838,1.254 C3.102,1.204 3.364,1.191 3.626,1.182 C3.899,1.172 4.172,1.189 4.446,1.186 C4.652,1.184 4.859,1.158 5.064,1.163 C5.503,1.173 5.941,1.207 6.379,1.216 C6.911,1.226 7.443,1.22 7.975,1.226 C8.335,1.232 8.695,1.248 9.055,1.259 C9.149,1.262 9.245,1.272 9.338,1.269 C9.632,1.259 9.921,1.283 10.21,1.347 C10.408,1.391 10.617,1.394 10.822,1.401 C10.892,1.403 10.966,1.366 11.037,1.339 C11.3991609,1.19180655 11.7995514,1.16722117 12.177,1.269 L12.113,3.856 C11.847,3.856 11.581,3.872 11.319,3.852 C10.879,3.818 10.445,3.792 10.006,3.87 C9.891,3.89 9.766,3.87 9.646,3.874 C9.251,3.89 8.856,3.911 8.46,3.924 C8.358,3.928 8.254,3.909 8.152,3.904 C8.002,3.901 7.962,3.934 7.96,4.08 C7.953,4.655 7.949,5.23 7.947,5.807 C7.945,6.245 7.942,6.683 7.947,7.121 C7.951,7.429 7.969,7.738 7.973,8.047 C7.98,8.581 7.987,9.114 7.981,9.647 C7.976,10.397 7.959,11.145 7.947,11.893 C7.939,12.289 7.927,12.683 7.925,13.08 C7.925,13.485 7.939,13.889 7.944,14.294 C7.944,14.397 7.946,14.502 7.93,14.603 C7.88598279,14.8923401 7.90094959,15.1875943 7.974,15.471 C7.98382297,15.5130753 7.99017762,15.5558855 7.993,15.599 C8.004,15.779 7.913,15.906 7.733,15.912 C7.427,15.922 7.125,15.946 6.811,15.907 C6.444,15.863 6.064,15.783 5.684,15.867 C5.587,15.887 5.478,15.869 5.376,15.86 C5.276,15.85 5.187,15.828 5.089,15.908 C4.993,15.987 4.891,15.94 4.664,15.78 L4.663,15.78 Z M32.01,3.704 L32.01,3.728 C31.98,3.728 31.948,3.73 31.918,3.727 C31.606,3.703 31.504,3.867 31.525,4.142 C31.535,4.274 31.551,4.406 31.55,4.537 C31.547,4.822 31.535,5.106 31.526,5.391 C31.523,5.471 31.503,5.552 31.508,5.631 C31.528,5.902 31.569,6.172 31.573,6.444 C31.58,6.814 31.557,7.184 31.555,7.555 C31.555,7.807 31.573,8.058 31.572,8.31 C31.572,8.616 31.558,8.921 31.548,9.226 C31.544,9.332 31.615,9.376 31.695,9.377 C32.2860907,9.37563919 32.8764214,9.33454656 33.462,9.254 C33.727,9.215 33.989,9.15 34.248,9.081 C34.449,9.028 34.651,8.966 34.84,8.881 C35.033,8.795 35.225,8.694 35.395,8.569 C35.545,8.458 35.666,8.308 35.796,8.171 C35.817,8.15 35.816,8.107 35.823,8.075 C35.838,8.022 35.853,7.97 35.865,7.918 C35.889,7.82 35.91,7.723 35.933,7.625 C35.971,7.453 36.02,7.283 36.045,7.109 C36.067,6.968 36.07,6.822 36.065,6.679 C36.056,6.514 36.028,6.349 36.011,6.184 C36.004,6.111 36.018,6.034 36.001,5.965 C35.957,5.799 35.978,5.638 36.011,5.474 C36.0245974,5.4220949 36.0218029,5.36725413 36.003,5.317 C35.9398845,5.16895792 35.8433667,5.03752949 35.721,4.933 C35.493,4.745 35.291,4.525 35.077,4.319 C35.053,4.296 35.03,4.267 34.999,4.252 C34.557,4.036 34.129,3.785 33.612,3.773 C33.36,3.767 33.109,3.718 32.856,3.707 C32.574,3.695 32.292,3.704 32.01,3.704 L32.01,3.704 Z M28.13,10.438 C28.151,10.359 28.183,10.28 28.19,10.2 C28.213,9.9 28.223,9.599 28.251,9.3 C28.261,9.204 28.311,9.112 28.349,8.999 C28.2,8.903 28.234,8.72 28.241,8.542 C28.244,8.466 28.219,8.389 28.221,8.312 C28.231,7.972 28.239,7.63 28.259,7.29 C28.264,7.206 28.312,7.126 28.34,7.043 C28.231,6.99 28.247,6.662 28.386,6.476 C28.263,6.436 28.277,6.347 28.289,6.244 C28.304,6.119 28.294,5.991 28.299,5.864 C28.313,5.548 28.33,5.231 28.341,4.915 C28.344,4.826 28.324,4.735 28.323,4.645 C28.323,4.454 28.323,4.262 28.329,4.071 C28.33,4.035 28.363,3.992 28.394,3.968 C28.452,3.922 28.521,3.887 28.591,3.843 L28.359,3.754 L28.379,3.706 C28.355,3.652 28.322,3.611 28.322,3.569 C28.317,3.339 28.326,3.109 28.318,2.879 C28.309,2.635 28.279,2.392 28.271,2.147 C28.266,2.002 28.291,1.856 28.293,1.711 C28.296,1.542 28.301,1.376 28.235,1.21 C28.205,1.135 28.243,1.012 28.289,0.933 C28.346,0.835 28.455,0.805 28.575,0.812 C28.809,0.827 29.042,0.828 29.276,0.836 C29.468,0.843 29.662,0.868 29.854,0.855 C30.271,0.828 30.682,0.946 31.107,0.849 C31.407,0.781 31.731,0.817 32.042,0.83 C32.432,0.846 32.82,0.884 33.207,0.914 C33.254,0.918 33.3,0.933 33.347,0.941 C33.517,0.967 33.687,0.988 33.855,1.02 C34.027,1.054 34.196,1.098 34.365,1.14 C34.766,1.238 35.167,1.336 35.567,1.436 C35.867,1.512 36.151,1.634 36.427,1.775 C36.671,1.902 36.919,2.024 37.158,2.161 C37.273,2.226 37.378,2.312 37.473,2.403 C37.673,2.589 37.87,2.776 38.053,2.978 C38.165,3.105 38.247,3.261 38.343,3.405 C38.444,3.557 38.573,3.698 38.638,3.864 C38.829,4.363 39.033,4.857 39.168,5.38 C39.265,5.759 39.348,6.136 39.364,6.525 C39.37,6.713 39.341,6.904 39.314,7.092 C39.259,7.443 39.205,7.794 39.131,8.141 C39.0384082,8.59033945 38.8523852,9.01519399 38.585,9.388 C38.417,9.619 38.239,9.838 38.033,10.042 C37.871,10.202 37.717,10.364 37.529,10.494 C37.373,10.6 37.225,10.718 37.072,10.828 C36.896,10.953 36.723,11.081 36.539,11.194 C36.429,11.262 36.456,11.328 36.511,11.405 C36.675,11.634 36.833,11.867 37.007,12.087 C37.262,12.412 37.485,12.754 37.687,13.115 C37.83,13.371 38.022,13.6 38.187,13.844 C38.319,14.043 38.44,14.249 38.572,14.449 C38.788,14.774 39.008,15.098 39.232,15.419 C39.277,15.484 39.344,15.534 39.407,15.596 C39.31,15.685 39.228,15.739 39.1,15.731 C38.993,15.724 38.883,15.763 38.775,15.778 C38.579,15.804 38.383,15.85 38.189,15.846 C38.019,15.842 37.85,15.774 37.679,15.748 C37.534,15.726 37.381,15.691 37.244,15.72 C36.994,15.773 36.748,15.764 36.508,15.712 C36.2546355,15.6560428 36.0059128,15.5808242 35.764,15.487 C35.5480782,15.3982988 35.3890508,15.2097805 35.338,14.982 C35.268,14.71 35.076,14.525 34.941,14.3 C34.8942797,14.2221774 34.8431982,14.1470576 34.788,14.075 C34.704,13.963 34.615,13.855 34.529,13.746 C34.489,13.695 34.445,13.647 34.406,13.595 C34.29,13.433 34.177,13.27 34.062,13.109 C33.975,12.988 33.887,12.869 33.793,12.741 L33.87,12.69 C33.862,12.683 33.855,12.671 33.85,12.672 C33.758,12.694 33.697,12.667 33.654,12.578 C33.585,12.437 33.505,12.303 33.427,12.167 C33.398,12.115 33.362,12.066 33.328,12.016 C33.289267,11.9592499 33.2499314,11.9029133 33.21,11.847 C33.127,11.877 33.023,11.929 32.913,11.954 C32.701,12 32.489,12.044 32.274,12.067 C32.07,12.089 31.864,12.083 31.658,12.09 C31.645,12.09 31.631,12.089 31.619,12.094 C31.546,12.119 31.415,12.343 31.41,12.431 C31.402,12.62 31.374,12.808 31.375,12.997 C31.375,13.196 31.403,13.395 31.412,13.594 C31.422,13.768 31.422,13.943 31.429,14.117 C31.431,14.181 31.446,14.245 31.445,14.308 C31.439,14.686 31.433,15.064 31.417,15.442 C31.415,15.486 31.364,15.552 31.323,15.568 C31.0731732,15.668686 30.8052434,15.7166887 30.536,15.709 C30.359,15.702 30.178,15.731 30.006,15.672 C29.781,15.595 29.558,15.606 29.326,15.637 C29.126,15.663 28.919,15.639 28.716,15.649 C28.486,15.661 28.196,15.413 28.194,15.188 C28.1916667,14.8220007 28.1923334,14.4559884 28.196,14.09 C28.197,14.042 28.226,13.995 28.243,13.946 C28.231,13.933 28.198,13.913 28.198,13.894 C28.198,13.67 28.209,13.446 28.205,13.222 C28.202,13.004 28.183,12.787 28.178,12.568 C28.174,12.394 28.183,12.219 28.185,12.045 L28.192,11.364 C28.192,11.346 28.187,11.327 28.193,11.312 C28.283,11.082 28.166,10.861 28.177,10.648 L28.297,10.53 L28.277,10.512 L28.13,10.568 L28.13,10.438 L28.13,10.438 Z M18.255,6.309 C18.289,6.318 18.314,6.331 18.337,6.329 C18.75,6.264 19.16,6.315 19.571,6.343 C20.069,6.377 20.567,6.383 21.058,6.255 C21.412,6.163 21.653,5.972 21.743,5.6 C21.793,5.392 21.89,5.197 21.95,4.99 C21.9703716,4.90751635 21.9676035,4.82101244 21.942,4.74 C21.898,4.602 21.831,4.47 21.771,4.336 C21.6477503,4.05404905 21.3966896,3.84836518 21.096,3.783 C20.9447153,3.74635557 20.7896585,3.7275608 20.634,3.727 C19.962,3.725 19.288,3.717 18.614,3.74 C18.193,3.755 18.062,3.82 18.067,4.292 L18.087,5.794 C18.087,5.837 18.082,5.901 18.106,5.919 C18.242,6.017 18.206,6.181 18.255,6.309 L18.255,6.309 Z M20.557,12.919 L20.557,12.946 C20.79,12.926 21.027,12.932 21.253,12.883 C21.626,12.798 21.987,12.675 22.173,12.288 C22.213,12.203 22.29,12.136 22.339,12.056 C22.452,11.874 22.557,11.686 22.668,11.504 C22.788,11.304 22.786,11.078 22.814,10.855 C22.8557096,10.5716211 22.7877576,10.2830037 22.624,10.048 C22.538,9.923 22.411,9.828 22.309,9.714 C22.0590524,9.42455034 21.7199097,9.22648257 21.345,9.151 C21.051,9.093 20.744,9.091 20.443,9.087 C20.055,9.084 19.665,9.139 19.28,9.107 C19.0061043,9.08813055 18.7310942,9.09281442 18.458,9.121 C18.238,9.141 18.151,9.231 18.152,9.446 C18.154,9.722 18.165,9.999 18.159,10.273 C18.147,10.911 18.128,11.55 18.111,12.187 C18.108,12.343 18.098,12.497 18.101,12.653 C18.107,12.837 18.154,12.886 18.33,12.889 C19.072,12.901 19.815,12.909 20.557,12.919 L20.557,12.919 Z M15.073,15.544 L15.073,14.539 C15.072,14.316 15.067,14.092 15.072,13.868 C15.087,13.202 15.112,12.536 15.119,11.871 C15.127,11.171 15.113,10.472 15.116,9.773 C15.118,9.376 15.136,8.978 15.141,8.581 C15.144,8.341 15.131,8.099 15.128,7.858 C15.108,6.77 15.092,5.682 15.07,4.593 C15.055,3.827 15.028,3.059 15.014,2.291 C15.011,2.147 15.049,2.001 15.054,1.856 C15.06,1.721 15.076,1.576 15.036,1.45 C14.933,1.127 15.096,0.958 15.39,0.95 C15.93,0.938 16.47,0.937 17.009,0.925 C17.129,0.922 17.249,0.88 17.368,0.886 C17.891,0.913 18.414,0.953 18.938,0.98 C19.144,0.99 19.353,0.995 19.558,0.978 C20.0228418,0.944614871 20.4895714,0.947289539 20.954,0.986 C21.394,1.02 21.834,1.038 22.261,1.154 C22.409,1.193 22.55,1.258 22.691,1.316 C22.811,1.366 22.925,1.441 23.048,1.469 C23.495,1.572 23.79,1.898 24.111,2.181 C24.297,2.346 24.473,2.531 24.613,2.733 C24.758,2.944 24.889,3.178 24.963,3.42 C25.058,3.73 25.105,4.059 25.143,4.383 C25.1672678,4.58773605 25.1615408,4.79491719 25.126,4.998 C25.076425,5.28746028 25.0011266,5.57192102 24.901,5.848 C24.691,6.411 24.355,6.882 23.811,7.178 C23.737,7.218 23.673,7.276 23.59,7.336 L23.683,7.466 C23.6498984,7.50227687 23.6172294,7.53894613 23.585,7.576 C23.604,7.606 23.612,7.635 23.631,7.646 C23.88,7.801 24.141,7.938 24.378,8.111 C24.953,8.531 25.501,8.987 25.75,9.687 C25.906,10.127 25.975,10.589 26,11.057 C26.023,11.472 25.896,11.855 25.806,12.251 C25.594,13.19 25.016,13.891 24.368,14.544 C24.014,14.901 23.57,15.154 23.113,15.361 C22.783,15.51 22.421,15.569 22.06,15.608 C21.613,15.654 21.167,15.7 20.719,15.725 C20.463,15.742 20.204,15.709 19.945,15.706 C19.662,15.705 19.378,15.712 19.094,15.714 C18.714,15.714 18.334,15.709 17.954,15.712 C17.507,15.715 17.063,15.652 16.612,15.705 C16.372,15.733 16.117,15.66 15.876,15.605 C15.734,15.571 15.608,15.517 15.451,15.557 C15.341,15.584 15.217,15.551 15.073,15.544 L15.073,15.544 Z" id="Shape"></path>
            <path d="M4.663,15.78 C4.715,15.244 4.743,14.723 4.718,14.197 C4.686,13.535 4.698,12.871 4.692,12.207 C4.687,11.581 4.678,10.953 4.68,10.326 C4.681,9.595 4.664,8.863 4.71,8.134 C4.742,7.608 4.69,7.086 4.708,6.563 C4.725,6.099 4.76,5.635 4.761,5.171 C4.763,4.873 4.72,4.575 4.7,4.277 C4.692,4.152 4.624,4.091 4.508,4.071 C4.441,4.058 4.374,4.044 4.305,4.041 C3.979,4.027 3.655,4.011 3.328,4.005 C2.83,3.994 2.33,3.995 1.832,3.983 C1.578,3.976 1.319,4.013 1.068,3.923 C0.995074899,3.90230114 0.934815054,3.85080636 0.903,3.782 C0.777261326,3.55540973 0.741554299,3.28974946 0.803,3.038 C0.852,2.817 0.813,2.576 0.813,2.343 C0.813,2.249 0.82,2.153 0.808,2.06 C0.798150114,1.96033892 0.771790346,1.86301054 0.73,1.772 C0.606,1.531 0.722,1.291 0.991,1.269 C1.103,1.259 1.216,1.269 1.328,1.269 C1.455,1.268 1.583,1.264 1.711,1.261 C1.796,1.259 1.881,1.257 1.966,1.257 C2.257,1.259 2.556,1.306 2.838,1.254 C3.102,1.204 3.364,1.191 3.626,1.182 C3.899,1.172 4.172,1.189 4.446,1.186 C4.652,1.184 4.859,1.158 5.064,1.163 C5.503,1.173 5.941,1.207 6.379,1.216 C6.911,1.226 7.443,1.22 7.975,1.226 C8.335,1.232 8.695,1.248 9.055,1.259 C9.149,1.262 9.245,1.272 9.338,1.269 C9.632,1.259 9.921,1.283 10.21,1.347 C10.408,1.391 10.617,1.394 10.822,1.401 C10.892,1.403 10.966,1.366 11.037,1.339 C11.3991609,1.19180655 11.7995514,1.16722117 12.177,1.269 L12.113,3.856 C11.847,3.856 11.581,3.872 11.319,3.852 C10.879,3.818 10.445,3.792 10.006,3.87 C9.891,3.89 9.766,3.87 9.646,3.874 C9.251,3.89 8.856,3.911 8.46,3.924 C8.358,3.928 8.254,3.909 8.152,3.904 C8.002,3.901 7.962,3.934 7.96,4.08 C7.953,4.655 7.949,5.23 7.947,5.807 C7.945,6.245 7.942,6.683 7.947,7.121 C7.951,7.429 7.969,7.738 7.973,8.047 C7.98,8.581 7.987,9.114 7.981,9.647 C7.976,10.397 7.959,11.145 7.947,11.893 C7.939,12.289 7.927,12.683 7.925,13.08 C7.925,13.485 7.939,13.889 7.944,14.294 C7.944,14.397 7.946,14.502 7.93,14.603 C7.88598279,14.8923401 7.90094959,15.1875943 7.974,15.471 C7.98382297,15.5130753 7.99017762,15.5558855 7.993,15.599 C8.004,15.779 7.913,15.906 7.733,15.912 C7.427,15.922 7.125,15.946 6.811,15.907 C6.444,15.863 6.064,15.783 5.684,15.867 C5.587,15.887 5.478,15.869 5.376,15.86 C5.276,15.85 5.187,15.828 5.089,15.908 C4.993,15.987 4.891,15.94 4.664,15.78 L4.663,15.78 Z M32.01,3.704 L32.01,3.728 C31.98,3.728 31.948,3.73 31.918,3.727 C31.606,3.703 31.504,3.867 31.525,4.142 C31.535,4.274 31.551,4.406 31.55,4.537 C31.547,4.822 31.535,5.106 31.526,5.391 C31.523,5.471 31.503,5.552 31.508,5.631 C31.528,5.902 31.569,6.172 31.573,6.444 C31.58,6.814 31.557,7.184 31.555,7.555 C31.555,7.807 31.573,8.058 31.572,8.31 C31.572,8.616 31.558,8.921 31.548,9.226 C31.544,9.332 31.615,9.376 31.695,9.377 C32.2860907,9.37563919 32.8764214,9.33454656 33.462,9.254 C33.727,9.215 33.989,9.15 34.248,9.081 C34.449,9.028 34.651,8.966 34.84,8.881 C35.033,8.795 35.225,8.694 35.395,8.569 C35.545,8.458 35.666,8.308 35.796,8.171 C35.817,8.15 35.816,8.107 35.823,8.075 C35.838,8.022 35.853,7.97 35.865,7.918 C35.889,7.82 35.91,7.723 35.933,7.625 C35.971,7.453 36.02,7.283 36.045,7.109 C36.067,6.968 36.07,6.822 36.065,6.679 C36.056,6.514 36.028,6.349 36.011,6.184 C36.004,6.111 36.018,6.034 36.001,5.965 C35.957,5.799 35.978,5.638 36.011,5.474 C36.0245974,5.4220949 36.0218029,5.36725413 36.003,5.317 C35.9398845,5.16895792 35.8433667,5.03752949 35.721,4.933 C35.493,4.745 35.291,4.525 35.077,4.319 C35.053,4.296 35.03,4.267 34.999,4.252 C34.557,4.036 34.129,3.785 33.612,3.773 C33.36,3.767 33.109,3.718 32.856,3.707 C32.574,3.695 32.292,3.704 32.01,3.704 L32.01,3.704 Z M28.13,10.438 C28.151,10.359 28.183,10.28 28.19,10.2 C28.213,9.9 28.223,9.599 28.251,9.3 C28.261,9.204 28.311,9.112 28.349,8.999 C28.2,8.903 28.234,8.72 28.241,8.542 C28.244,8.466 28.219,8.389 28.221,8.312 C28.231,7.972 28.239,7.63 28.259,7.29 C28.264,7.206 28.312,7.126 28.34,7.043 C28.231,6.99 28.247,6.662 28.386,6.476 C28.263,6.436 28.277,6.347 28.289,6.244 C28.304,6.119 28.294,5.991 28.299,5.864 C28.313,5.548 28.33,5.231 28.341,4.915 C28.344,4.826 28.324,4.735 28.323,4.645 C28.323,4.454 28.323,4.262 28.329,4.071 C28.33,4.035 28.363,3.992 28.394,3.968 C28.452,3.922 28.521,3.887 28.591,3.843 L28.359,3.754 L28.379,3.706 C28.355,3.652 28.322,3.611 28.322,3.569 C28.317,3.339 28.326,3.109 28.318,2.879 C28.309,2.635 28.279,2.392 28.271,2.147 C28.266,2.002 28.291,1.856 28.293,1.711 C28.296,1.542 28.301,1.376 28.235,1.21 C28.205,1.135 28.243,1.012 28.289,0.933 C28.346,0.835 28.455,0.805 28.575,0.812 C28.809,0.827 29.042,0.828 29.276,0.836 C29.468,0.843 29.662,0.868 29.854,0.855 C30.271,0.828 30.682,0.946 31.107,0.849 C31.407,0.781 31.731,0.817 32.042,0.83 C32.432,0.846 32.82,0.884 33.207,0.914 C33.254,0.918 33.3,0.933 33.347,0.941 C33.517,0.967 33.687,0.988 33.855,1.02 C34.027,1.054 34.196,1.098 34.365,1.14 C34.766,1.238 35.167,1.336 35.567,1.436 C35.867,1.512 36.151,1.634 36.427,1.775 C36.671,1.902 36.919,2.024 37.158,2.161 C37.273,2.226 37.378,2.312 37.473,2.403 C37.673,2.589 37.87,2.776 38.053,2.978 C38.165,3.105 38.247,3.261 38.343,3.405 C38.444,3.557 38.573,3.698 38.638,3.864 C38.829,4.363 39.033,4.857 39.168,5.38 C39.265,5.759 39.348,6.136 39.364,6.525 C39.37,6.713 39.341,6.904 39.314,7.092 C39.259,7.443 39.205,7.794 39.131,8.141 C39.0384082,8.59033945 38.8523852,9.01519399 38.585,9.388 C38.417,9.619 38.239,9.838 38.033,10.042 C37.871,10.202 37.717,10.364 37.529,10.494 C37.373,10.6 37.225,10.718 37.072,10.828 C36.896,10.953 36.723,11.081 36.539,11.194 C36.429,11.262 36.456,11.328 36.511,11.405 C36.675,11.634 36.833,11.867 37.007,12.087 C37.262,12.412 37.485,12.754 37.687,13.115 C37.83,13.371 38.022,13.6 38.187,13.844 C38.319,14.043 38.44,14.249 38.572,14.449 C38.788,14.774 39.008,15.098 39.232,15.419 C39.277,15.484 39.344,15.534 39.407,15.596 C39.31,15.685 39.228,15.739 39.1,15.731 C38.993,15.724 38.883,15.763 38.775,15.778 C38.579,15.804 38.383,15.85 38.189,15.846 C38.019,15.842 37.85,15.774 37.679,15.748 C37.534,15.726 37.381,15.691 37.244,15.72 C36.994,15.773 36.748,15.764 36.508,15.712 C36.2546355,15.6560428 36.0059128,15.5808242 35.764,15.487 C35.5480782,15.3982988 35.3890508,15.2097805 35.338,14.982 C35.268,14.71 35.076,14.525 34.941,14.3 C34.8942797,14.2221774 34.8431982,14.1470576 34.788,14.075 C34.704,13.963 34.615,13.855 34.529,13.746 C34.489,13.695 34.445,13.647 34.406,13.595 C34.29,13.433 34.177,13.27 34.062,13.109 C33.975,12.988 33.887,12.869 33.793,12.741 L33.87,12.69 C33.862,12.683 33.855,12.671 33.85,12.672 C33.758,12.694 33.697,12.667 33.654,12.578 C33.585,12.437 33.505,12.303 33.427,12.167 C33.398,12.115 33.362,12.066 33.328,12.016 C33.289267,11.9592499 33.2499314,11.9029133 33.21,11.847 C33.127,11.877 33.023,11.929 32.913,11.954 C32.701,12 32.489,12.044 32.274,12.067 C32.07,12.089 31.864,12.083 31.658,12.09 C31.645,12.09 31.631,12.089 31.619,12.094 C31.546,12.119 31.415,12.343 31.41,12.431 C31.402,12.62 31.374,12.808 31.375,12.997 C31.375,13.196 31.403,13.395 31.412,13.594 C31.422,13.768 31.422,13.943 31.429,14.117 C31.431,14.181 31.446,14.245 31.445,14.308 C31.439,14.686 31.433,15.064 31.417,15.442 C31.415,15.486 31.364,15.552 31.323,15.568 C31.0731732,15.668686 30.8052434,15.7166887 30.536,15.709 C30.359,15.702 30.178,15.731 30.006,15.672 C29.781,15.595 29.558,15.606 29.326,15.637 C29.126,15.663 28.919,15.639 28.716,15.649 C28.486,15.661 28.196,15.413 28.194,15.188 C28.1916667,14.8220007 28.1923334,14.4559884 28.196,14.09 C28.197,14.042 28.226,13.995 28.243,13.946 C28.231,13.933 28.198,13.913 28.198,13.894 C28.198,13.67 28.209,13.446 28.205,13.222 C28.202,13.004 28.183,12.787 28.178,12.568 C28.174,12.394 28.183,12.219 28.185,12.045 L28.192,11.364 C28.192,11.346 28.187,11.327 28.193,11.312 C28.283,11.082 28.166,10.861 28.177,10.648 L28.297,10.53 L28.277,10.512 L28.13,10.568 L28.13,10.438 L28.13,10.438 Z M18.255,6.309 C18.289,6.318 18.314,6.331 18.337,6.329 C18.75,6.264 19.16,6.315 19.571,6.343 C20.069,6.377 20.567,6.383 21.058,6.255 C21.412,6.163 21.653,5.972 21.743,5.6 C21.793,5.392 21.89,5.197 21.95,4.99 C21.9703716,4.90751635 21.9676035,4.82101244 21.942,4.74 C21.898,4.602 21.831,4.47 21.771,4.336 C21.6477503,4.05404905 21.3966896,3.84836518 21.096,3.783 C20.9447153,3.74635557 20.7896585,3.7275608 20.634,3.727 C19.962,3.725 19.288,3.717 18.614,3.74 C18.193,3.755 18.062,3.82 18.067,4.292 L18.087,5.794 C18.087,5.837 18.082,5.901 18.106,5.919 C18.242,6.017 18.206,6.181 18.255,6.309 L18.255,6.309 Z M20.557,12.919 L20.557,12.946 C20.79,12.926 21.027,12.932 21.253,12.883 C21.626,12.798 21.987,12.675 22.173,12.288 C22.213,12.203 22.29,12.136 22.339,12.056 C22.452,11.874 22.557,11.686 22.668,11.504 C22.788,11.304 22.786,11.078 22.814,10.855 C22.8557096,10.5716211 22.7877576,10.2830037 22.624,10.048 C22.538,9.923 22.411,9.828 22.309,9.714 C22.0590524,9.42455034 21.7199097,9.22648257 21.345,9.151 C21.051,9.093 20.744,9.091 20.443,9.087 C20.055,9.084 19.665,9.139 19.28,9.107 C19.0061043,9.08813055 18.7310942,9.09281442 18.458,9.121 C18.238,9.141 18.151,9.231 18.152,9.446 C18.154,9.722 18.165,9.999 18.159,10.273 C18.147,10.911 18.128,11.55 18.111,12.187 C18.108,12.343 18.098,12.497 18.101,12.653 C18.107,12.837 18.154,12.886 18.33,12.889 C19.072,12.901 19.815,12.909 20.557,12.919 L20.557,12.919 Z M15.073,15.544 L15.073,14.539 C15.072,14.316 15.067,14.092 15.072,13.868 C15.087,13.202 15.112,12.536 15.119,11.871 C15.127,11.171 15.113,10.472 15.116,9.773 C15.118,9.376 15.136,8.978 15.141,8.581 C15.144,8.341 15.131,8.099 15.128,7.858 C15.108,6.77 15.092,5.682 15.07,4.593 C15.055,3.827 15.028,3.059 15.014,2.291 C15.011,2.147 15.049,2.001 15.054,1.856 C15.06,1.721 15.076,1.576 15.036,1.45 C14.933,1.127 15.096,0.958 15.39,0.95 C15.93,0.938 16.47,0.937 17.009,0.925 C17.129,0.922 17.249,0.88 17.368,0.886 C17.891,0.913 18.414,0.953 18.938,0.98 C19.144,0.99 19.353,0.995 19.558,0.978 C20.0228418,0.944614871 20.4895714,0.947289539 20.954,0.986 C21.394,1.02 21.834,1.038 22.261,1.154 C22.409,1.193 22.55,1.258 22.691,1.316 C22.811,1.366 22.925,1.441 23.048,1.469 C23.495,1.572 23.79,1.898 24.111,2.181 C24.297,2.346 24.473,2.531 24.613,2.733 C24.758,2.944 24.889,3.178 24.963,3.42 C25.058,3.73 25.105,4.059 25.143,4.383 C25.1672678,4.58773605 25.1615408,4.79491719 25.126,4.998 C25.076425,5.28746028 25.0011266,5.57192102 24.901,5.848 C24.691,6.411 24.355,6.882 23.811,7.178 C23.737,7.218 23.673,7.276 23.59,7.336 L23.683,7.466 C23.6498984,7.50227687 23.6172294,7.53894613 23.585,7.576 C23.604,7.606 23.612,7.635 23.631,7.646 C23.88,7.801 24.141,7.938 24.378,8.111 C24.953,8.531 25.501,8.987 25.75,9.687 C25.906,10.127 25.975,10.589 26,11.057 C26.023,11.472 25.896,11.855 25.806,12.251 C25.594,13.19 25.016,13.891 24.368,14.544 C24.014,14.901 23.57,15.154 23.113,15.361 C22.783,15.51 22.421,15.569 22.06,15.608 C21.613,15.654 21.167,15.7 20.719,15.725 C20.463,15.742 20.204,15.709 19.945,15.706 C19.662,15.705 19.378,15.712 19.094,15.714 C18.714,15.714 18.334,15.709 17.954,15.712 C17.507,15.715 17.063,15.652 16.612,15.705 C16.372,15.733 16.117,15.66 15.876,15.605 C15.734,15.571 15.608,15.517 15.451,15.557 C15.341,15.584 15.217,15.551 15.073,15.544 L15.073,15.544 Z" id="Shape"></path>
        </g>
    </g>
</svg>