<svg width="64" height="15" xmlns="http://www.w3.org/2000/svg">
    <path d="M5.794 8.06c.114-.188.22-.334.205-.546a1.283 1.283 0 0 1 .057-.443c.036-.122.126-.229.176-.348.056-.13.104-.266.137-.403.056-.234.09-.472.15-.703.03-.12.093-.234.147-.347.066-.139.149-.27.208-.41.097-.229.185-.46.27-.693.057-.156.1-.318.157-.474.027-.072.076-.136.104-.207.032-.078.054-.159.076-.24.074-.267.142-.535.22-.799a4.01 4.01 0 0 1 .183-.513c.053-.114.107-.223.14-.348.032-.122.125-.227.189-.34.02-.04.05-.083.047-.123a.647.647 0 0 1 .145-.439.475.475 0 0 0 .068-.164c.042-.169.125-.24.295-.257A.46.46 0 0 0 8.91.23c.18-.079.366-.093.56-.085.204.007.383.066.546.161.013.381.089.741.234 1.092.094.227.148.472.224.708.026.082.06.16.089.241.052.15.095.303.154.45.177.44.36.878.54 1.318.203.494.403.99.605 1.484.017.042.034.086.062.12.156.196.229.426.28.662.07.328.218.626.343.933.092.225.152.462.23.692.048.134.107.265.158.398.028.074.045.152.078.223.012.03.054.043.083.064.015-.027.037-.054.043-.084.062-.274.133-.546.176-.822.037-.245.133-.475.14-.727.005-.125.084-.247.12-.373.112-.39.222-.779.265-1.187.019-.176.084-.348.136-.52.049-.164.107-.326.163-.489.098-.285.2-.569.297-.855.032-.098.038-.205.072-.302.043-.119.109-.229.154-.347.028-.072.028-.154.05-.229.057-.18.116-.36.18-.538.029-.08.072-.156.11-.233.105-.208.218-.412.315-.623.072-.155.123-.32.187-.48.07-.173.114-.367.3-.456a.531.531 0 0 1 .227-.033c.236 0 .478-.024.706.022.235.047.46-.006.69.004.135.006.272-.025.407-.045.21-.032.395.05.58.125.053.021.102.048.14.068-.088.251-.17.504-.264.751-.107.278-.227.551-.343.825-.021.052-.055.102-.068.155-.071.307-.207.588-.341.87-.047.102-.07.215-.108.321-.086.234-.18.466-.264.701-.05.142-.083.29-.13.433-.044.134-.1.267-.142.403-.044.14-.07.283-.12.42-.171.47-.367.932-.522 1.41-.177.548-.314 1.108-.478 1.661-.077.26-.17.516-.264.77-.106.287-.228.567-.328.855-.096.273-.175.554-.257.831-.105.358-.191.722-.313 1.073-.166.48-.358.951-.537 1.426-.078.206-.141.418-.228.62-.122.286-.25.401-.558.346-.177-.03-.362-.006-.544-.01-.263-.008-.37-.12-.396-.38-.013-.125-.056-.246-.092-.366-.066-.225-.131-.452-.207-.675-.042-.123-.035-.252-.106-.376-.097-.169-.137-.37-.202-.558-.022-.063-.051-.123-.07-.188-.057-.187-.103-.379-.17-.563-.086-.244-.191-.482-.284-.724-.032-.083-.05-.172-.075-.258-.071-.243-.197-.455-.334-.667-.102-.158-.152-.349-.226-.526-.083-.196-.185-.388-.247-.59-.08-.254-.261-.47-.263-.75 0-.015-.002-.035-.011-.043-.142-.122-.161-.3-.221-.46-.085-.227-.173-.452-.254-.68-.078-.222-.147-.447-.221-.669-.005-.014-.012-.027-.026-.057-.017.042-.028.067-.037.094-.106.305-.21.612-.32.916-.084.238-.173.473-.267.71-.09.226-.188.451-.282.677-.154.373-.305.747-.463 1.12-.078.183-.177.36-.251.543-.09.221-.156.451-.242.671-.101.26-.213.516-.32.774-.075.18-.153.36-.226.542-.136.34-.27.678-.403 1.018-.071.184-.14.37-.208.556-.004.013-.003.034.005.042.067.075.019.146.002.221-.048.21-.226.256-.386.323-.126.054-.253.114-.386.14-.181.034-.377.104-.541-.059-.008-.008-.016-.02-.025-.02-.186-.013-.21-.127-.226-.29-.018-.167-.11-.324-.16-.487a19.65 19.65 0 0 1-.175-.63c-.038-.144-.07-.29-.105-.434a.422.422 0 0 0-.047-.115 1.521 1.521 0 0 1-.227-.71.461.461 0 0 0-.091-.196.77.77 0 0 1-.128-.278c-.04-.175-.04-.368-.202-.509-.06-.05-.041-.189-.058-.288-.008-.05-.008-.103-.027-.148-.078-.199-.167-.392-.241-.59-.09-.242-.161-.49-.256-.728a.762.762 0 0 1-.051-.232c-.006-.056-.04-.11-.064-.164-.1-.232-.2-.464-.298-.696a15.17 15.17 0 0 1-.135-.318 3.157 3.157 0 0 1-.086-.229 2.773 2.773 0 0 0-.358-.768c-.077-.109-.1-.258-.146-.388l-.097-.269c-.007-.018-.027-.033-.028-.049-.017-.217-.16-.378-.248-.563-.143-.296-.294-.588-.441-.88a.575.575 0 0 1-.03-.085l-.19-.667c-.02-.073-.048-.144-.053-.217-.015-.239-.112-.457-.18-.68-.054-.18-.15-.345-.23-.515C.4 2.015.375 1.994.366 1.966c-.058-.179-.113-.36-.17-.54-.007-.025-.01-.055-.024-.075C.017 1.162-.013.931.004.706.023.472.134.256.357.148.447.105.576.136.687.14c.127.004.252.017.378.023.12.005.24.021.358.008.204-.023.393.001.582.088.08.037.187.04.278.03.219-.03.42.027.614.11.055.023.087.118.113.186.052.137.094.278.137.417.08.268.15.54.244.801.093.26.21.51.316.764.024.058.035.122.057.181.062.166.13.33.187.497.046.138.066.287.118.423.235.618.445 1.246.725 1.842.268.568.447 1.168.709 1.737.097.211.148.443.223.666.013.04.035.078.068.147zm34.593-5.008c.009.174.02.373.028.57.01.303.017.604.026.906.005.166.017.33.014.497-.002.116-.022.232-.035.348-.008.076.022.109.102.112.24.009.48.032.72.04.39.01.78.005 1.168.028.31.02.562-.076.737-.326.085-.121.187-.211.299-.301.106-.086.187-.19.18-.344-.004-.066.027-.135.046-.203.015-.051.054-.1.054-.15-.002-.17-.022-.34-.024-.51-.004-.246-.148-.474-.374-.548a6.44 6.44 0 0 0-.69-.196 3.87 3.87 0 0 0-.636-.072c-.334-.016-.67-.015-1.003-.02-.025 0-.05.015-.076.022-.17.045-.338.092-.536.147zm.066 4.819v.208l.023.904c.004.15.008.3.015.45.016.294.048.588.049.882.002.396-.02.792-.03 1.188-.002.12.045.168.166.178a.388.388 0 0 0 .113-.003c.15-.034.296-.03.45-.003.157.028.32.007.482.012.219.005.437.026.654.02.28-.008.564.016.838-.081.129-.046.27-.052.404-.083a.194.194 0 0 0 .106-.064c.108-.137.215-.276.313-.42.204-.3.419-.592.595-.907.134-.24.063-.513.026-.772-.002-.014-.018-.025-.024-.04l-.083-.202c-.028-.066-.055-.135-.088-.2-.024-.048-.075-.087-.087-.137-.05-.228-.271-.311-.397-.474-.016-.02-.063-.018-.095-.025-.18-.04-.356-.08-.535-.118a.047.047 0 0 1-.02-.012.39.39 0 0 0-.251-.111c-.045-.003-.086-.066-.133-.093a.9.9 0 0 0-.164-.068c-.023-.007-.053.012-.078.007a1.006 1.006 0 0 0-.45.004 1.535 1.535 0 0 1-.381.047c-.28-.003-.56-.02-.84-.036-.188-.011-.373-.032-.578-.051zm4.81-1.29c.195.096.392.182.578.286.339.189.677.378.895.724.056.09.169.143.255.215a.3.3 0 0 1 .073.082c.058.126.104.258.169.38.172.328.223.685.28 1.043.03.2.074.403.07.604a9.815 9.815 0 0 1-.072 1.014c-.057.456-.262.863-.458 1.27a.924.924 0 0 1-.118.18c-.246.314-.498.623-.828.853a4.934 4.934 0 0 1-.547.334c-.24.122-.483.24-.735.33a7.809 7.809 0 0 1-1.033.31c-.227.048-.47.013-.707.022-.15.006-.3.036-.45.035-.197-.002-.396-.023-.596-.035-.071-.004-.143.003-.214-.007-.11-.017-.217-.043-.327-.065-.033-.006-.065-.018-.098-.02-.24-.006-.48-.007-.717-.017-.302-.013-.596.045-.892.09-.177.028-.357.038-.537.06a1.683 1.683 0 0 0-.221.04c-.175.047-.343.004-.51-.04-.21-.054-.424-.098-.628-.17-.181-.064-.244-.231-.278-.407-.024-.133-.061-.264-.08-.397-.022-.177-.073-.364-.036-.53.053-.236.012-.45-.034-.673a3.93 3.93 0 0 1-.071-1.13c.006-.07-.008-.142-.02-.213-.034-.217.044-.422.06-.632.016-.2-.028-.405-.045-.608-.012-.132-.027-.264-.036-.396-.013-.195-.028-.39-.03-.583 0-.157.02-.313.03-.47.003-.056.01-.113-.002-.166-.044-.181-.021-.36-.004-.538.035-.392.065-.783.093-1.174.007-.102-.037-.215-.004-.303.093-.241.029-.476.013-.716-.007-.123.017-.247.01-.37-.012-.253-.044-.506-.055-.76-.008-.18.01-.36.006-.54-.002-.092-.045-.188-.037-.28.017-.195-.054-.363-.12-.54-.02-.05.005-.118.018-.177.046-.204.006-.402-.044-.598-.062-.238-.104-.476-.062-.723a.31.31 0 0 0 0-.101c-.034-.223.023-.408.22-.537.025-.015.059-.033.068-.057.092-.218.302-.197.474-.216.18-.022.366.013.55.024.056.003.116 0 .169.017.22.067.433.028.648-.034.09-.027.199-.011.282-.05.263-.126.545-.143.825-.174.229-.025.463-.056.69-.044.29.015.575.076.863.109.29.033.583.052.875.083.175.018.35.044.524.073.263.046.528.086.787.15.43.108.837.276 1.202.53.283.2.559.41.836.619.032.024.059.06.076.096.085.176.165.354.247.532.005.01.007.022.014.03.11.143.182.302.206.48.015.108.036.213.04.32.023.477-.058.948-.092 1.42-.023.339-.116.66-.325.949-.15.207-.277.429-.453.616-.063.066-.122.135-.19.194-.144.13-.295.254-.44.378zm10.529 1.782l.41-.03c.406-.034.813-.066 1.218-.102.138-.013.279-.023.412-.06.262-.073.517-.166.776-.244.246-.072.467-.17.597-.41.028-.052.08-.09.114-.14.103-.148.238-.285.297-.45.177-.477.223-.98.235-1.488a1.202 1.202 0 0 0-.025-.254c-.037-.198-.091-.394-.118-.594-.021-.156-.063-.29-.186-.397-.03-.025-.05-.063-.075-.096-.1-.138-.193-.283-.303-.413-.054-.062-.161-.083-.206-.148-.09-.132-.154-.28-.233-.42a.173.173 0 0 0-.083-.074c-.113-.043-.23-.08-.345-.117-.172-.055-.345-.108-.518-.162-.036-.01-.074-.017-.108-.033-.116-.054-.227-.12-.364-.074-.023.008-.053 0-.08-.002-.183-.003-.358-.154-.548-.026-.003.002-.008 0-.012 0-.232.01-.465.016-.697.036-.091.008-.197.028-.213.148a1.401 1.401 0 0 0-.01.282c.016.237.049.472.062.71.018.304.018.611.032.916.007.127.034.252.05.38.008.063.017.127.013.19-.018.3-.046.6-.057.9-.017.49-.025.981-.034 1.471-.004.23-.001.46-.001.701zm4.673 1.714c.088.14.17.276.26.41.09.136.192.268.285.404.093.137.18.278.27.417.117.184.232.37.35.553.132.205.266.408.4.612.145.22.27.455.439.657.185.222.28.476.365.743.03.098.118.1.21.064l.01.03c-.08.084-.15.181-.242.25-.233.167-.49.253-.781.171a.259.259 0 0 0-.08-.005c-.214.013-.43.037-.645.04a.716.716 0 0 1-.32-.057c-.166-.083-.34-.075-.514-.097-.05-.007-.1 0-.148-.004-.18-.008-.376-.172-.428-.343a.484.484 0 0 0-.083-.157c-.101-.132-.208-.26-.314-.39a.295.295 0 0 0-.063-.065.987.987 0 0 1-.437-.545c-.075-.225-.247-.368-.385-.542a1.303 1.303 0 0 1-.154-.235c-.081-.168-.15-.342-.226-.514-.025-.058-.042-.125-.082-.172-.028-.035-.092-.07-.131-.063-.128.027-.232-.01-.347-.06-.177-.074-.37-.11-.551-.177-.14-.053-.262-.003-.394.011-.194.021-.391.014-.586.023a2.145 2.145 0 0 0-.301.027c-.027.005-.056.057-.064.092-.01.042.002.09.005.144h.1c-.207.946-.147 1.888-.086 2.847.006-.002-.023.017-.041.01-.213-.08-.416.034-.624.026-.147-.006-.296.054-.444-.024-.036-.019-.117.011-.155.043-.09.078-.224.125-.321.057-.091-.064-.168-.027-.254-.026a1.567 1.567 0 0 1-.342-.03c-.124-.027-.24-.064-.367-.01-.04.017-.093 0-.14-.006-.021-.003-.044-.022-.062-.018-.151.03-.23-.049-.311-.167-.086-.126-.018-.242-.011-.359.004-.087.06-.17.073-.258.022-.163.02-.328.043-.49.018-.14.068-.277.079-.417.01-.132-.011-.266-.018-.399-.017-.375-.047-.748-.004-1.124.013-.115-.034-.243-.071-.359-.075-.228-.05-.46-.05-.693a.848.848 0 0 0-.012-.144c-.021-.106-.033-.206.024-.307.02-.035.01-.098-.004-.142-.074-.23-.04-.465-.026-.699.005-.083-.002-.167-.006-.25l-.03-.5c-.008-.183-.02-.366-.02-.549 0-.095.02-.19.032-.287.003-.02.016-.043.017-.064.007-.129.003-.26.02-.388.029-.208.04-.403-.024-.616-.06-.2-.032-.43-.044-.647-.005-.074-.016-.147-.017-.22-.002-.169.005-.338-.001-.506-.004-.107-.034-.213-.04-.32-.004-.082.008-.164.014-.245.008-.134.02-.268.025-.402l.025-.805c.005-.157.006-.313.01-.469.003-.085.009-.17.015-.255.008-.093.04-.192.02-.279a1.208 1.208 0 0 1 .019-.545c.003-.014.009-.03.006-.045-.042-.202.032-.38.129-.545.08-.133.169-.283.294-.36a.658.658 0 0 1 .55-.093c.12.038.244.081.368.091.169.014.346.025.51-.01.19-.042.352.041.528.057.118.012.237.014.356.022.109.006.22.001.326.025.178.04.343 0 .512-.04.089-.023.183-.04.274-.037.245.008.494.063.733.034.234-.029.447.047.67.051.165.003.327.07.49.103.16.034.32.075.48.085.29.02.563.088.832.197.246.1.5.18.748.278.284.115.529.296.776.476.25.183.415.428.582.676.183.275.389.536.549.823.173.311.323.638.45.971.118.312.198.64.285.961.047.177.09.36.1.54.015.232-.008.464-.015.696-.007.194.002.388-.024.58-.024.181-.085.36-.13.54-.005.02-.023.041-.022.061.012.21-.108.36-.224.512a.96.96 0 0 0-.121.214c-.045.11-.132.167-.225.225-.062.038-.111.1-.16.155-.111.128-.212.268-.332.387-.214.211-.441.408-.66.615-.054.05-.088.126-.146.17-.117.088-.245.164-.37.243-.025.014-.062.023-.088.015-.143-.04-.237.035-.34.141zM27.816.005c.075.158.2.177.321.176.244-.002.488-.028.731-.028.375 0 .75.019 1.125.017.207 0 .414-.026.621-.04.052-.002.105 0 .158.005.151.012.303.024.454.04.13.014.26.029.39.048.128.018.258.018.375.098.105.075.19.15.222.283.022.086.075.165.114.246a.949.949 0 0 1 .087.537c-.023.195.003.395.005.594.001.063-.008.128-.01.19-.005.072.005.146-.012.214a2.274 2.274 0 0 1-.102.305c-.033.079-.075.153-.107.219-.594.015-1.188.032-1.783.044-.35.007-.7.007-1.05.01-.256.002-.512-.002-.767.005-.223.006-.27.087-.24.308.027.192.031.388.028.582-.002.145-.039.29-.047.435-.005.1.023.2.022.3 0 .164-.015.327-.02.49-.006.114-.006.229-.01.343l-.014.326c-.007.159-.018.319-.019.48 0 .143.013.287.015.43.003.16-.003.323 0 .484.002.115.012.23.018.344 0 .015.006.032.001.045-.087.266.003.534-.016.802-.014.195 0 .393.01.589a.852.852 0 0 0 .046.216c.054.169.084.337.063.517-.013.12.02.247.031.37.008.097.02.194.02.29-.002.16-.01.319-.022.478-.004.055-.037.108-.039.163-.006.115.007.233 0 .347-.005.054-.04.106-.063.159-.018.044-.052.086-.054.13-.013.278-.02.555-.03.833 0 .008-.004.017 0 .022.103.157.062.336.078.506.007.077-.01.155-.01.234 0 .11.014.22.008.333-.007.136.002.286-.05.406a.544.544 0 0 1-.427.314c-.259.039-.52.06-.78.087-.142.015-.285.02-.424.04-.095.016-.184.069-.279.077a.736.736 0 0 1-.495-.111c-.109-.073-.225-.137-.329-.216a.205.205 0 0 1-.073-.137 130.64 130.64 0 0 1-.019-1.88c0-.33.016-.661.017-.993.002-.4-.008-.798-.007-1.2 0-.214.021-.428.02-.642-.003-.223-.022-.446-.03-.667-.009-.223-.035-.448-.017-.667.033-.401-.044-.791-.069-1.187a15.608 15.608 0 0 1-.036-.891c-.002-.442.008-.883.017-1.325.008-.324.027-.648.034-.972.003-.144-.012-.287-.015-.431 0-.07-.036-.104-.102-.11a2.171 2.171 0 0 0-.18-.01c-.415-.007-.83 0-1.244-.023-.293-.016-.583-.081-.876-.106-.169-.015-.342.007-.513.01-.126.003-.253.002-.38.004-.043 0-.089-.002-.129.01-.163.05-.226.025-.266-.14-.052-.217-.124-.435-.134-.655-.01-.198.06-.397.081-.597.017-.171.03-.34-.03-.515-.045-.135-.133-.286-.009-.44.033-.04.02-.115.03-.175.024-.14.103-.172.234-.14.23.056.46.112.706.054.171-.04.356-.01.533-.028.223-.023.442-.075.666-.09.161-.012.325.014.488.02.077.005.156-.005.231.008.168.029.332.076.501.103a.732.732 0 0 0 .28-.005c.223-.06.441-.022.66.009.154.02.308.046.462.066.036.005.082.003.11-.016a.715.715 0 0 1 .461-.104c.11.006.223-.023.335-.032.071-.007.143-.002.212-.015a.405.405 0 0 0 .144-.064c.055-.04.101-.087.163-.143z"
    fillRule="evenodd" />
</svg>