<svg xmlns="http://www.w3.org/2000/svg" viewBox="0 0 639.22 444.62"><g data-name="Layer 2"><g data-name="Layer 1"><path d="M419.1 26.75a129.45 129.45 0 0 1-3.1 26.42c-1.14 5.24-2.83 10.36-4.46 15.48s-3.35 10.34-5.31 15.4-4.15 9.76-6.29 14.61c-4 9-7.83 18-12 26.92a48.6 48.6 0 0 0-4.23 18.9 32.15 32.15 0 0 0 1.65 11c1.64 5 5 5.31 9.77 3.52 7.83-2.92 14.41-7.95 20.51-13.6 2.38-2.21 5-3.71 8.46-3 2.58.5 5.2 2.78 5.56 5.38A15.52 15.52 0 0 1 426.8 159c-2.93 4.31-7.19 7.14-11.42 9.91-4.91 3.22-9.91 6.33-15.09 9.09-2.93 1.56-6.27 2.35-9.45 3.42-1.23.42-2.61 1.11-3.78.89a37.46 37.46 0 0 1-8.92-2.42c-5.56-2.56-9.32-7-11.74-12.65-.56-1.3-1.58-1.32-2.88-.21-2.33 2-4.57 4.09-7 5.9-5.62 4.11-11.64 7.4-18.59 8.82a25.88 25.88 0 0 1-10.87-.15c-7-1.48-11.25-5.9-14.33-11.81-4.68-9-4.75-18.51-3-28.21a48.06 48.06 0 0 1 4-12.45 2.35 2.35 0 0 0-.87-3.26c-3.87-2.86-7.63-5.87-11.48-8.76-2.68-2-5.4-3.94-8.19-5.79a8.48 8.48 0 0 0-2.55-.7 8 8 0 0 0 .21 2.42c3 7.18 4.92 14.62 4.66 22.44a56.11 56.11 0 0 1-7.29 26.67 46.77 46.77 0 0 1-10 12.3c-1 .88-1.24 1.65.14 2.67a13.65 13.65 0 0 1 5.59 9.57c.58 4.35 1.13 8.67.56 13.08a113.93 113.93 0 0 1-5.34 23.23c-2.12 6.07-4.14 12.19-6.66 18.09-3.49 8.15-7.33 16.15-11.17 24.14-3.37 7-6.92 13.91-10.45 20.82-1.5 2.94-3.23 5.77-4.69 8.73a2.45 2.45 0 0 0 .38 2.24c.78.76 1.63.38 2.35-.54 6-7.76 11.9-15.7 19.46-22.08a81.4 81.4 0 0 1 11.87-8.67c2.83-1.61 6.28-2.54 9.74-.86a6.63 6.63 0 0 1 3.76 4.15c1.76 5.82.77 11.52-.87 17.16-1.39 4.82-2.81 9.64-4.3 14.43-1.33 4.29-3 8.48-4.08 12.83a36.61 36.61 0 0 0-.86 15.66c.74 3.91 3.49 5.22 7.31 4.12 7.93-2.29 13.67-7.64 19.37-13.12 2.45-2.34 2.56-5.62 3.41-8.58s1.53-6.29 2.27-9.45c.46-1.94.87-3.9 1.36-5.83 1.17-4.66 2.4-9.3 3.57-14 .56-2.24 1-4.5 1.52-6.75.88-3.86 3.6-6.22 7-7.56a23.77 23.77 0 0 1 12.65-1.8c2.57.41 4 2 4 4.37a20.27 20.27 0 0 1-.41 3.72c-1.56 7.77-4.12 15.27-6.27 22.89-1 3.66-1.86 7.39-2.75 11.09a100.09 100.09 0 0 0-2.26 9.85c-.77 5.81-2 11.64-.34 17.52a4.49 4.49 0 0 0 4.19 3.34c4.46.26 8-2 11.33-4.39 4.74-3.37 9.29-7 13.71-10.8a7.2 7.2 0 0 0 1.94-4.28c1.06-7.82 1.73-15.7 2.87-23.5.8-5.5 2.13-10.92 3.21-16.38a14.22 14.22 0 0 0 .32-2.24c.19-4.72 2.82-8 6.61-10.26 1.7-1 4.1-1.13 6.16-1.07 6.33.2 7.53 3.08 7.92 9.58.24 4.19-.68 8.47-1.24 12.69-.69 5.15-1.58 10.27-2.27 15.42-.08.56.59 1.22.91 1.83.81-.48 1.87-.79 2.37-1.49a49.41 49.41 0 0 0 2.6-4.75c4.58-8.46 9.11-16.94 13.77-25.35a16.36 16.36 0 0 1 8.34-7.21c4.76-2 11.33-.72 13.76 3.21a18.16 18.16 0 0 1 2.32 12.29c-.56 4-1.34 8-2 12-.92 5.24-2.13 10.44-2.7 15.71-.61 5.71-.78 11.49-.82 17.24a11.56 11.56 0 0 0 1.64 5.34c2.15 3.92 4.34 4.56 8.58 2.41a48 48 0 0 0 7.46-5 4.4 4.4 0 0 0 1.33-2.88 71.52 71.52 0 0 1 3.36-16.1 79.09 79.09 0 0 1 9.25-19.28c5.46-8.29 12.07-15.56 20.94-20.33a50.71 50.71 0 0 1 10.82-4.47c2.76-.73 5.86-.46 8.77-.21 1 .08 2.22 1.28 2.78 2.28 2.09 3.8 5.53 4.57 9.38 4.59.94 0 1.88-.1 2.82-.15 4.29-.21 6.27 1.27 6.69 5.53a41.66 41.66 0 0 1-.07 8.05c-.59 6-1.35 12.07-2.11 18.1-.41 3.28-.95 6.56-1.44 9.83-.66 4.39-1.29 8.79-2 13.17-.63 3.82-1.39 7.62-2.05 11.44-.42 2.4-.82 4.8-1.08 7.22 0 .3.92 1.07 1.24 1a7.36 7.36 0 0 0 2.62-1.32q5.83-4.71 11.55-9.57a2.57 2.57 0 0 0 .79-2c-.81-5.36 2.31-8.69 5.92-11.81 4.59-4 9.18-7.94 13.74-12 4.91-4.33 8.71-9.63 12.65-14.81q8.91-11.75 18-23.37c4.42-5.67 10.31-7.55 17.35-6.56 2.66.38 4.91 1.19 6.54 3.42s1.41 6.86-.78 9.69a120.33 120.33 0 0 1-8.07 9.89c-2.66 2.75-2.77 5.79-2 9 1.25 5.15 3.07 10.17 4.05 15.36.95 5 1.16 10.19 1.67 15.29.08.81 0 1.63 0 2.45.06 1.24.72 1.52 1.77 1 7.88-4 15.8-7.9 23.61-12a64.16 64.16 0 0 0 7.3-4.9c2.42-1.74 4.72-1.18 6.69.52a6.24 6.24 0 0 1 1.9 6.18 23.05 23.05 0 0 1-5 10.13c-3.52 4.33-8.24 7-13 9.58-3.67 2-7.38 3.9-11.2 5.55s-7.65 2.95-11.54 4.22c-3.61 1.18-7.27 2.26-11 3.09a61.58 61.58 0 0 1-10.51 1.71 113.64 113.64 0 0 1-16.71-.05c-6.41-.65-12.22-3.1-16.05-8.79a7 7 0 0 1-.61-1.15c-.79-1.82-1.78-2.06-3.23-.72a191.21 191.21 0 0 1-29.4 22c-2.18 1.35-2.12 3.82-2.6 6-.68 3.1-1.29 6.22-2 9.31-.51 2.25-1 4.51-1.66 6.72-1.3 4.55-2.4 9.17-4.1 13.57a159.06 159.06 0 0 1-6.95 15.28c-4.07 7.86-9.46 14.73-16.94 19.65-4 2.64-8.3 4.86-13.19 5.4-3.66.41-7.37 1.16-11 .9-5.69-.42-11.3-1.63-15-6.78a17.28 17.28 0 0 1-3.15-9.23c-.37-6 1.65-11.29 4.34-16.42 6.54-12.5 15.57-23.13 25.53-33 7.49-7.39 15.31-14.45 23.15-21.48 1.85-1.66 2.34-3.75 3.18-5.79a20.76 20.76 0 0 0 1-3.2 5.56 5.56 0 0 0-.14-1.55 3.93 3.93 0 0 0-1.37.28c-2.38 1.6-4.64 3.39-7.09 4.89-4.38 2.68-9.12 4.6-14.33 4.14-7-.63-13-3.59-17-9.6-.93-1.38-1.71-1.61-3-.67A57.7 57.7 0 0 1 431 355a33.77 33.77 0 0 1-8.69 1.39c-3.64.09-6.12-2.21-7.87-5.24-2.22-3.86-3-8.11-3.74-12.46-1.66-9.88-.47-19.64.65-29.43.27-2.36.63-4.72.81-7.08a6.33 6.33 0 0 0-.6-2.06c-.66.36-1.6.56-1.94 1.11-1.18 2-2.18 4.07-3.22 6.14q-5.91 11.7-11.81 23.42c-3.37 6.69-6.86 13.32-10.06 20.09-2.16 4.54-8.33 6.38-12.25 5-4.1-1.43-6-4.15-6.93-8.06-.34-1.53-.7-3.06-1.06-4.58s-.9-1.76-2.14-.86a85.83 85.83 0 0 1-16.92 9.47c-5.57 2.39-11.26 4.23-17.28 4.53-5.58.28-10.94-.9-14.63-5.63-1.22-1.57-1.75-3.68-2.61-5.53s-1.17-1.82-2.88-.73c-3.88 2.48-7.82 4.89-11.86 7.08a48.61 48.61 0 0 1-7.9 3.34c-5.29 1.73-10.73 2.37-15.77-.59-4-2.32-6.61-6-8.61-10.16a40.89 40.89 0 0 1-3.6-14.28 28.6 28.6 0 0 1 1.15-9.83c1.52-5.59 3.44-11.08 5.42-16.54 1.12-3.08 2.73-6 4-9 .24-.58-.07-1.39-.12-2.1-.81.18-1.83.11-2.38.59a34.13 34.13 0 0 0-4.75 4.79c-5.38 7-10.88 13.93-15.86 21.22a198.36 198.36 0 0 0-10.32 17.62c-2.73 5-5 10.31-7.6 15.45-1.7 3.38-4.69 5-7.95 4.41-2.9-.51-5.16-3.39-6-6.71-1.65-6.3-1.29-12.67-1.17-19.06.16-9.22 0-18.45.27-27.66.15-5.64.65-11.27 1.15-16.9.67-7.6 1.32-15.22 2.3-22.79.92-7.19 2.12-14.36 3.46-21.48 1-5.38 2.38-10.7 3.69-16 .71-2.9 1.62-5.76 2.44-8.63.64-2.24.11-3-2.43-3.22q-5.81-.54-11.61-1c-5.87-.44-11.76-.79-17.63-1.31-1.7-.15-2.45.44-2.72 2-.95 5.49-1.86 11-2.94 16.46-.8 4-1.86 8-2.78 12.06-1.47 6.46-2.85 13-4.43 19.39-.92 3.8-2.18 7.52-3.24 11.29-.54 1.92-1 3.87-1.45 5.81-1.31 5.14-2.57 10.29-3.93 15.42-1 3.85-2.23 7.66-3.3 11.5-1.37 4.92-2.65 9.87-4.06 14.79-1.9 6.61-3.91 13.19-5.81 19.79-1 3.36-1.62 6.82-2.73 10.12-1.78 5.3-5 9.46-10.28 11.76a4.3 4.3 0 0 1-2.16.47c-4.06-.57-8.58-.61-10.69-4.9a12.76 12.76 0 0 1-1.16-7.06c.95-6.68 2.38-13.29 3.74-19.9.78-3.79 1.66-7.57 2.72-11.29 1.26-4.44 2.74-8.82 4.16-13.22 1-3 2-6 3-9.05 1.89-5.55 3.82-11.09 5.71-16.64s3.65-10.9 5.53-16.33c1.06-3.06 2.29-6.06 3.36-9.12 1.47-4.19 2.89-8.39 4.29-12.59q2.79-8.35 5.54-16.73 1.92-5.86 3.78-11.75c.59-1.86.17-2.41-1.87-2.24-6.19.5-12.44.62-18.52 1.72-5.78 1.05-11.7 2.13-16.78 5.54-4.12 2.76-6.92 6.3-7.06 11.48-.15 5.46-3.46 8.86-8.1 10.41-3.07 1-6.69.57-10.06.49-1.49 0-3-.93-4.46-1.14a4.47 4.47 0 0 0-2.69.66c-3.47 2.17-6.74 4.72-10.33 6.68-6.14 3.35-12.86 4.52-19.83 4.88a53.54 53.54 0 0 1-15.08-1.65c-4-.93-8-2.11-11.45-4.75-4.52-3.48-5.81-8.16-3.15-13.27a27.19 27.19 0 0 1 4-5.61 5.22 5.22 0 0 1 3.28-1.53 24.05 24.05 0 0 1 10.58 1.89A89.58 89.58 0 0 0 79.41 232c5 1.1 8.77-1.63 12-5.22a55.07 55.07 0 0 0 10.34-16.86q4.18-10.92 8.17-21.9a37.45 37.45 0 0 0 1.37-5.22 4.53 4.53 0 0 0-.34-1.71 5.27 5.27 0 0 0-1.6.61c-4.8 4.13-9.74 8.08-15.44 10.91-2.71 1.35-5.61 2.33-8.43 3.45-6.69 2.68-13.77 3.52-20.84 4.26a60.89 60.89 0 0 1-23.49-1.65 51.21 51.21 0 0 1-20.99-11.87 60.28 60.28 0 0 1-15.72-24 54.73 54.73 0 0 1-3.67-16.62c-.19-4.44-.95-8.89-.73-13.3a157.84 157.84 0 0 1 2-18.64 118.79 118.79 0 0 1 4.09-17.08 136.53 136.53 0 0 1 6.78-16.22 98.79 98.79 0 0 1 7.27-13.09c3.79-5.54 8.05-10.77 12.23-16a41.66 41.66 0 0 1 5.32-5.47c4.58-4 9-8.16 14-11.51A165 165 0 0 1 69.31 25c2.79-1.42 6-2.09 9-3.08a30.18 30.18 0 0 1 3.9-1.19c4.41-.8 8.81-1.76 13.26-2.18a51.3 51.3 0 0 1 11.08.12c5.95.75 11.71 2.53 16.54 6.23a30.72 30.72 0 0 1 10.06 13.92 49.4 49.4 0 0 1 2.2 25.76c-1 5.89-3.72 11.19-9 14.65-4.93 3.24-10.63 1.47-12.79-4a15.41 15.41 0 0 1-.12-11c1.15-3.39 2.34-7 2.36-10.49 0-6.85-2.25-13.1-8.51-16.72A13.46 13.46 0 0 0 98 35.71c-1.41.29-2.84.49-4.28.65-6.66.72-12.55 3.57-18.28 6.78a94.77 94.77 0 0 0-9.29 5.92A45 45 0 0 0 60 54.52c-3.47 3.64-6.91 7.33-10.1 11.22a87.47 87.47 0 0 0-6.07 8.76A92.39 92.39 0 0 0 33.48 96c-1.89 5.93-3.36 12-4.8 18.06-1.87 7.91-2.18 16-2.19 24.09 0 9.07 1.43 17.86 6.66 25.59a29.4 29.4 0 0 0 13.87 11c6.09 2.45 12.36 2.27 18.66 2.19a62.6 62.6 0 0 0 9.4-.53 90.87 90.87 0 0 0 16.49-4 110.46 110.46 0 0 0 17.17-7.85 22 22 0 0 0 4.09-2.63 6.56 6.56 0 0 0 1.58-3.05 29.21 29.21 0 0 0 1-10.38c-.41-4.49-4.51-6-7.47-6.27-2.55-.24-5.14-.2-7.69-.5-5.89-.69-10.44-7.63-8.29-13.14.71-1.83 2.72-3.49 4.55-4.46 4.63-2.46 9.76-2.53 14.85-1.9a68.58 68.58 0 0 1 10.49 1.87 17.92 17.92 0 0 1 12.39 11.74c1.78 5 1.79 10.13 1.73 15.24a205.5 205.5 0 0 1-1 21.79c-.94 7.91-2.77 15.72-4.18 23.57a9.5 9.5 0 0 0 .05 2 18.06 18.06 0 0 0 2.08-.19c3.74-.74 7.49-1.48 11.21-2.31a128.94 128.94 0 0 1 24.23-2.5c12.23-.36 24.47-.76 36.7-.54 10.14.18 20.27 1.18 30.39 1.93 1.77.13 2.42-1 3.29-2 2.69-3.28 5.37-6.57 8.13-9.8.91-1.06.89-2-.34-2.69a58.1 58.1 0 0 1-6.17-3.73 32 32 0 0 1-5.33-5.21c-3.58-4.45-5.48-9.78-6.94-15.21a50.13 50.13 0 0 1-1.46-16.6c.31-4.23.85-8.46 1.41-12.67a3.45 3.45 0 0 0-1.48-3.71c-5.79-4.17-11.52-8.41-17.33-12.55a2.26 2.26 0 0 0-1.72.37c-.07 1.15-.32 2.64.27 3.42 2.5 3.23 2.83 7.17 3.67 10.86a46.78 46.78 0 0 1 0 19.43 53.79 53.79 0 0 1-11.52 24.82A35.94 35.94 0 0 1 184 180.72a27.54 27.54 0 0 1-15.14 1.1 28.66 28.66 0 0 1-12.13-5.44c-4.68-3.69-7.63-8.54-9.76-13.95a58.77 58.77 0 0 1-3.46-27.68 51.45 51.45 0 0 1 8.65-24.68 41.44 41.44 0 0 1 16.12-14 42.45 42.45 0 0 1 19.07-4.22 53.13 53.13 0 0 1 17.2 2.53 63.06 63.06 0 0 1 15.47 7.83c2.72 1.88 5.29 4 7.86 6.06 1.49 1.2 2.86 2.54 4.26 3.84.87.8 1.42.68 2-.36A40.62 40.62 0 0 1 249 97.41c9.46-5.44 19.72-6.31 30.2-5a51.75 51.75 0 0 1 23.8 9.68c4.69 3.38 9 7.35 13.36 11.11a30.56 30.56 0 0 1 2.47 2.73c1.46 1.61 1.61 1.54 3.24 0 3.34-3.2 6.5-6.67 10.19-9.39 5.91-4.36 12.42-7.69 19.88-8.67 1.17-.16 2.32-.46 3.49-.66s1.42-1.21 1.5-2.21c.44-5.51.82-11 1.44-16.5.49-4.42 1.13-8.83 2-13.18a126.51 126.51 0 0 1 3.35-13.42c2.36-7.36 4.74-14.75 7.7-21.88a62.65 62.65 0 0 1 10.84-17.69A78.52 78.52 0 0 1 388 6.14 25.31 25.31 0 0 1 393 3c3-1.62 6.09-2.95 9.55-3 6 0 10.14 2.8 12.83 8.14 3.22 6.32 3.52 13.08 3.72 18.61zM195 130.65v-2.64c-.23-5.1-.93-10.09-3.84-14.49-2-3-5.71-4.84-8.8-4.24a14.93 14.93 0 0 0-9.65 6.64 56.44 56.44 0 0 0-6.39 13 45.78 45.78 0 0 0-2.51 19.81c.7 6.1 2.37 11.79 8.4 15 2.08 1.13 7.81 1.39 9.64.07 3.59-2.59 6-6.22 7.87-10.07 1.35-2.7 2-5.75 3-8.63a41.36 41.36 0 0 0 2.28-14.45zm52 13.78c0 1.51-.11 3 0 4.52.44 5.41 2 10.32 6.61 13.74 3.2 2.36 9.56 3.61 13.07-.38a33 33 0 0 0 4.12-5.07 52.88 52.88 0 0 0 7.26-27.75c-.11-5.44-.51-10.87-3.64-15.66-2.42-3.7-5.81-5.08-9-4.63-4.28.61-7.44 3.42-9.62 6.67-5.69 8.57-8.98 18.07-8.8 28.56zM379.19 100h.33v8.46c0 .43.52.85.8 1.28.32-.35.76-.64.93-1 2.09-4.94 4.18-9.88 6.19-14.86 1.58-3.94 3-7.93 4.55-11.9.89-2.31 1.87-4.59 2.64-6.94.64-2 .92-4 1.56-6a132.57 132.57 0 0 0 5.89-25.92c.67-5.94 1.43-11.94.15-17.94-.74-3.47-4.14-4.84-6.53-2.25a23.53 23.53 0 0 0-5 7.74 163.83 163.83 0 0 0-5.78 20.09c-1.47 7-2.25 14.22-3.05 21.38-1.03 9.27-1.8 18.57-2.68 27.86zm90.42 226a45.55 45.55 0 0 0 .63 6c1.75 7.39 7.85 9.16 12.77 5 5.63-4.71 8.12-11.4 10-18.27.71-2.57 1.1-5.24 1.67-7.86s1.27-5.47 1.85-8.22c1.19-5.62 2.32-11.26 3.52-16.88.47-2.21-.41-3.24-2.59-2.62a24.73 24.73 0 0 0-9.22 4.41 47.32 47.32 0 0 0-11.39 13.83c-4.26 7.66-7.03 15.74-7.24 24.61zM357.73 123.49h.17v-10.35c0-2.13-.76-2.61-2.72-1.84a12.7 12.7 0 0 0-1.9 1.18 45.41 45.41 0 0 0-15.33 16.17 82.85 82.85 0 0 0-5.49 12.44 26.27 26.27 0 0 0-1.79 12.91 11.66 11.66 0 0 0 2.05 5.33c3.39 4.4 10.17 5.64 15.41.86 4.51-4.12 7.41-9.22 9.71-14.74a9.24 9.24 0 0 0 1-3.75c-.29-6.09-.73-12.15-1.11-18.21zM234.44 284.68h.12a3.48 3.48 0 0 0 0 1.12 14.14 14.14 0 0 0 .83 1.65 8.36 8.36 0 0 0 1.15-1.47c.68-1.47 1.25-3 1.88-4.48q5.28-12.4 10.56-24.81c2.09-4.94 4.25-9.85 6.17-14.85 2.84-7.39 5.51-14.84 8.19-22.28.41-1.13.37-2.42-1.29-2.49-3.95-.17-7.9-.3-11.85-.27a2.91 2.91 0 0 0-2 1.44 59.18 59.18 0 0 0-5.15 15.42c-1.31 6.87-3.12 13.65-4.38 20.53-1.17 6.39-1.92 12.86-2.81 19.3-.51 3.73-.95 7.51-1.42 11.19zm222.22 142.71c3.59.44 7.29-1.82 10.17-4.48 6.87-6.3 10.54-14.59 13.85-23 1.29-3.3 2.37-6.7 3.39-10.1a70.54 70.54 0 0 0 1.58-6.91 1.67 1.67 0 0 0-.52-1.44c-.3-.18-1.07.1-1.44.4-2.67 2.17-5.44 4.24-7.91 6.63-9.5 9.17-18.07 19.05-23.44 31.34-1.92 4.35-.21 7.55 4.32 7.56zm121.52-100.92c-.45-3-.84-5.92-1.37-8.86-.44-2.38-1-4.75-1.61-7.1a16.77 16.77 0 0 0-1-2.29c-.83.43-1.67.84-2.47 1.31a4.21 4.21 0 0 0-.81.77l-18.88 18.86c-1.86 1.86-2 3.67-.05 5.52a73.49 73.49 0 0 0 5.61 5 12.38 12.38 0 0 0 18.23-3.33c1.8-3.08 2.17-6.35 2.35-9.88zM267.33 197.89c-.15-1.5-.16-2.51-.36-3.48-.45-2.21-2.07-3.24-3.56-2.1a23.42 23.42 0 0 0-3.76 4c-.17.21.31 1.41.66 1.51a33.66 33.66 0 0 0 5.62 1.11c.5.07 1.07-.79 1.4-1.04z"/><path d="M343.86 252.71a16.88 16.88 0 0 1-9.43-2.13c-4.47-2.69-6.31-6.9-6.12-12 .26-7.06 3.9-11.69 10.41-14.06a22 22 0 0 1 17.13.59c5.62 2.54 7.4 9.09 6 14.88-1.56 6.35-5.6 10.2-11.63 12-2.03.61-4.22.5-6.36.72z"/></g></g></svg>