<?xml version="1.0" encoding="UTF-8"?>
<svg width="111px" height="28px" viewBox="0 0 111 28" version="1.1" xmlns="http://www.w3.org/2000/svg" xmlns:xlink="http://www.w3.org/1999/xlink">
    <!-- Generator: Sketch 57.1 (83088) - https://sketch.com -->
    <title>small-lg</title>
    <desc>Created with Sketch.</desc>
    <g id="Page-1" stroke="none" stroke-width="1" fill="none" fill-rule="evenodd">
        <g id="small-lg" transform="translate(-1.000000, -1.000000)" fill="#000000" fill-rule="nonzero">
            <path d="M36.44,1.86 L35.78,1.86 L35,1.83 L34.09,1.83 L33,1.81 C32.7539565,1.785204 32.5060435,1.785204 32.26,1.81 C32.0383708,1.84056639 31.8487913,1.9846468 31.76,2.19 C31.64,2.47 31.54,2.75 31.44,3.04 C31.34,3.33 31.23,3.89 31.07,4.31 C31.0468146,4.6366001 30.9437995,4.95251321 30.77,5.23 C30.7203638,5.33087141 30.6866315,5.43881461 30.67,5.55 C30.5922318,5.78426883 30.495235,6.01170963 30.38,6.23 C30.22,6.52 30.08,6.82 29.95,7.12 C29.82,7.42 29.84,7.48 29.77,7.67 C29.7386834,7.77325841 29.6985352,7.87362901 29.65,7.97 C29.4247937,8.44217741 29.2342893,8.93013582 29.08,9.43 C28.91,9.98 28.7,10.52 28.58,11.08 C28.46,11.64 28.31,11.98 28.11,12.4 C27.9955624,12.6194332 27.9339272,12.8625501 27.93,13.11 C27.9196649,13.3598266 27.8690115,13.6063398 27.78,13.84 C27.6850475,14.0664057 27.6243806,14.3057028 27.6,14.55 C27.5822979,14.799778 27.5178477,15.0440104 27.41,15.27 C27.33,15.44 27.27,15.62 27.19,15.8 C27.11,15.98 27.06,16.04 27,16.16 C26.9472209,16.2251664 26.860732,16.2526856 26.78,16.23 C26.5792188,16.1326436 26.4247729,15.9602389 26.35,15.75 C26.18,15.22 25.93,14.75 25.72,14.23 C25.6227558,14.002077 25.509125,13.7814995 25.38,13.57 C25.1986228,13.247356 25.0382886,12.9133265 24.9,12.57 L24.65,12.05 C24.56,11.88 24.47,11.71 24.39,11.54 L23.39,9.44 C23.39,9.34 23.3,9.24 23.25,9.14 C22.65,8 22.05,6.76 21.52,5.5 C21.41,5.22 21.27,4.95 21.17,4.66 C21.0462277,4.35594321 20.9060209,4.05883835 20.75,3.77 C20.53,3.33 20.35,2.87 20.09,2.44 C19.9820169,2.24614152 19.9172042,2.03123627 19.9,1.81 C19.8696872,1.73589681 19.7998758,1.68547743 19.72,1.68 L19.56,1.68 C19.276279,1.69550361 19.0234345,1.86406666 18.9,2.12 C18.84,2.24 18.79,2.37 18.73,2.49 C18.4363828,3.04893367 18.1726776,3.62307666 17.94,4.21 C17.630684,4.9152098 17.2766296,5.59993771 16.88,6.26 C16.6352264,6.59155278 16.4367367,6.95489002 16.29,7.34 C16.1302321,7.71950508 15.9499665,8.09005101 15.75,8.45 C15.6787098,8.56908247 15.6152425,8.69267682 15.56,8.82 C15.42,9.17 15.18,9.49 15.04,9.82 C14.9892519,9.91680074 14.9324734,10.0103182 14.87,10.1 C14.78,10.24 14.69,10.38 14.61,10.53 C14.4024264,10.9150073 14.2187458,11.3124253 14.06,11.72 C13.9477122,12.0030264 13.8208765,12.2800624 13.68,12.55 C13.5606482,12.7655672 13.4570446,12.9894847 13.37,13.22 C13.37,13.32 13.28,13.42 13.23,13.52 C13.0946629,13.7594293 12.9808816,14.0104175 12.89,14.27 C12.784568,14.5214835 12.7041794,14.7827464 12.65,15.05 C12.5862113,15.3448412 12.4854125,15.6304378 12.35,15.9 C12.301908,15.9672925 12.2225549,16.0050797 12.14,16 C12.0921199,15.9774561 12.0508085,15.9430298 12.02,15.9 C11.7820671,15.4043626 11.5976905,14.8847556 11.47,14.35 C11.3309405,13.7613429 11.1504919,13.1832389 10.93,12.62 C10.7,12 10.47,11.45 10.3,10.84 C10.3,10.71 10.2,10.59 10.15,10.46 C9.99,10.05 9.85,9.63 9.72,9.21 C9.6856352,9.07718041 9.64219992,8.94687455 9.59,8.82 C9.42642745,8.49834301 9.28930804,8.16390544 9.18,7.82 C9.08,7.45 8.92,7.1 8.81,6.73 C8.63,6.16 8.42,5.6 8.22,5 C8.07333333,4.63333333 7.94333333,4.25333333 7.83,3.86 C7.67,3.36 7.51,2.86 7.34,2.37 C7.33068883,2.31636022 7.31025038,2.2652641 7.28,2.22 C7.24486124,2.13501965 7.19001963,2.05961244 7.12,2 C6.99052601,1.90393729 6.83075529,1.85778131 6.67,1.87 L3.54,1.81 C3.23,1.81 2.93,1.75 2.63,1.76 C2.33,1.77 2,1.81 1.73,1.84 L1.16,1.89 C1.1,1.89 1,2 1,2.07 C0.965343434,2.14624663 0.965343434,2.23375337 1,2.31 C1.12,2.52 1.22,2.75 1.32,2.97 C1.42,3.19 1.66,3.72 1.84,4.09 C1.99909129,4.3800226 2.12970176,4.68478037 2.23,5 C2.29516898,5.21210593 2.37537217,5.41929749 2.47,5.62 C2.75,6.25 3,6.88 3.22,7.54 C3.31,7.82 3.39,8.12 3.46,8.41 C3.5182741,8.67992056 3.60893034,8.94181637 3.73,9.19 C3.92,9.56 4.02,9.96 4.18,10.34 C4.25935934,10.5129579 4.31971272,10.6940181 4.36,10.88 C4.47234502,11.337282 4.63675207,11.7801744 4.85,12.2 C4.97971083,12.4417558 5.08361652,12.6964923 5.16,12.96 C5.16,13.06 5.23,13.17 5.27,13.27 C5.41594287,13.5647143 5.53315105,13.8728043 5.62,14.19 C5.7,14.54 5.86,14.86 5.93,15.19 C5.94047296,15.2720848 5.96061271,15.3526438 5.99,15.43 C6.18623192,15.8821595 6.35324184,16.3464471 6.49,16.82 C6.59159736,17.1347703 6.72917374,17.4367673 6.9,17.72 C7.0089648,17.9107116 7.08980005,18.1161678 7.14,18.33 C7.23,18.68 7.34,19.02 7.46,19.33 C7.67,19.96 7.88,20.58 8.08,21.21 C8.12859327,21.369015 8.19221357,21.5230431 8.27,21.67 L8.43,21.95 C8.64550129,22.3667808 8.8036029,22.8108109 8.9,23.27 C8.92406812,23.4306087 8.9747641,23.5860764 9.05,23.73 C9.10879781,23.8238776 9.15581794,23.924635 9.19,24.03 C9.26493942,24.3244553 9.39377999,24.6024796 9.57,24.85 C9.62981877,24.9412634 9.68008371,25.0384422 9.72,25.14 C9.88,25.64 10.09,26.14 10.23,26.62 C10.23,26.78 10.35,26.93 10.41,27.08 C10.5730801,27.4276603 10.6939406,27.7935989 10.77,28.17 C10.77,28.17 10.77,28.22 10.77,28.25 C10.830413,28.3762638 10.9510659,28.462983 11.09,28.48 C11.3090395,28.4924762 11.5286393,28.468827 11.74,28.41 C11.8213375,28.395077 11.8933411,28.3482746 11.94,28.28 C12.0208908,28.1702235 12.0912047,28.0530338 12.15,27.93 C12.24,27.75 12.3,27.57 12.37,27.39 C12.5510934,26.9886215 12.7015238,26.5741024 12.82,26.15 C12.8987789,25.8569242 13.0273144,25.579558 13.2,25.33 C13.5715244,24.7535843 13.8895172,24.144377 14.15,23.51 C14.3411003,23.0543682 14.565022,22.613209 14.82,22.19 C15.17,21.59 15.48,20.98 15.82,20.37 C16.0588695,19.928602 16.2660583,19.4707814 16.44,19 C16.6933232,18.3116918 16.9974957,17.6431808 17.35,17 C17.51,16.71 17.64,16.41 17.78,16.1 C18.03,15.53 18.3,14.95 18.56,14.38 L19.02,13.38 L19.37,12.63 C19.3993524,12.583745 19.4328216,12.540235 19.47,12.5 C19.5167603,12.4330086 19.5933031,12.3930909 19.675,12.3930909 C19.7566969,12.3930909 19.8332397,12.4330086 19.88,12.5 L19.88,12.58 C19.9665434,12.8378983 20.0334018,13.101989 20.08,13.37 C20.128619,13.7074678 20.198762,14.0414822 20.29,14.37 C20.4003242,14.6500409 20.4775153,14.9420246 20.52,15.24 C20.5553856,15.4292464 20.6124274,15.6137932 20.69,15.79 C20.9552265,16.455492 21.2556506,17.1064109 21.59,17.74 C21.8667502,18.2469824 22.0752248,18.788344 22.21,19.35 C22.21,19.48 22.27,19.62 22.31,19.74 C22.5194367,20.3383853 22.7665991,20.9228909 23.05,21.49 C23.1593176,21.6821443 23.2529547,21.8827953 23.33,22.09 C23.5281283,22.6605685 23.7688044,23.2154607 24.05,23.75 C24.22,24.09 24.37,24.45 24.53,24.75 C24.5920624,25.0184596 24.7040036,25.2728714 24.86,25.5 C25.0196002,25.7247214 25.1474698,25.9703655 25.24,26.23 C25.2510041,26.2848778 25.2750087,26.3363163 25.31,26.38 C25.5657026,26.7681238 25.7961783,27.1722913 26,27.59 C26.1562915,27.8817372 26.2547617,28.2009165 26.29,28.53 C26.2983433,28.5848953 26.3315548,28.6328676 26.38,28.66 L26.74,28.86 L27.24,28.86 C27.245965,28.8070473 27.2630004,28.7559412 27.29,28.71 C27.3226312,28.6660272 27.363361,28.6286916 27.41,28.6 C27.5316588,28.5319372 27.6241573,28.4216505 27.67,28.29 C27.84,27.8 27.97,27.29 28.12,26.8 C28.2222527,26.4265766 28.345788,26.0593098 28.49,25.7 C28.68,25.25 28.85,24.78 29.01,24.32 C29.1555598,23.9315196 29.2758114,23.5340213 29.37,23.13 C29.553027,22.2992941 29.8176445,21.4886937 30.16,20.71 L30.4,20.18 C30.7078232,19.5664155 30.9524162,18.9231026 31.13,18.26 C31.2388414,17.8337407 31.3690051,17.4132118 31.52,17 C31.67,16.59 31.83,16.18 31.99,15.78 C32.44,14.68 32.84,13.57 33.28,12.47 C33.39,12.19 33.5,11.91 33.6,11.62 C33.7291741,11.2321055 33.879397,10.851541 34.05,10.48 C34.1757134,10.2042074 34.2826242,9.92022562 34.37,9.63 L34.49,9.23 C34.72,8.61 34.91,7.98 35.09,7.35 C35.2494441,6.7665701 35.4499441,6.19514504 35.69,5.64 C35.95,5.04 36.19,4.42 36.42,3.8 C36.65,3.18 36.8,2.71 37.03,2.18 C37.03,2.18 36.97,2.01 36.91,1.98 C36.7655563,1.90203262 36.6041409,1.86082019 36.44,1.86 Z" id="Path"></path>
            <path d="M86.79,18.5 C86.73,18.28 86.7,18.07 86.66,17.85 C86.5479923,17.1395855 86.2397396,16.4745909 85.77,15.93 L85.77,15.87 C85.0926432,15.0368867 84.2477034,14.3554836 83.29,13.87 L83,13.7 C82.9073947,13.6414316 82.8203627,13.5744839 82.74,13.5 C82.6520037,13.4266095 82.6068927,13.313832 82.62,13.2 C82.62,13.2 82.62,13.09 82.62,13.04 C82.5898975,12.8424718 82.6966703,12.6494594 82.88,12.57 L83.23,12.36 C83.5294158,12.1668519 83.7961005,11.9271732 84.02,11.65 L84.43,11.12 C84.71567,10.7203709 84.9102388,10.2629635 85,9.78 C85.06,9.54 85.12,9.3 85.2,9.07 C85.3013994,8.78365119 85.3587197,8.48356256 85.37,8.18 C85.3949047,7.88051687 85.3949047,7.57948313 85.37,7.28 C85.3851342,7.20071576 85.3851342,7.11928424 85.37,7.04 C85.2667169,6.75328874 85.2028009,6.45389284 85.18,6.15 C85.1617291,5.76372019 85.0371512,5.38998638 84.82,5.07 C84.7607605,4.97671159 84.7073259,4.87986139 84.66,4.78 C84.6263024,4.70447514 84.5825751,4.63383878 84.53,4.57 C84.28,4.32 84.09,4.02 83.83,3.77 C83.57,3.52 83.05,3.07 82.64,2.77 C82.4311941,2.59144149 82.1852393,2.46163199 81.92,2.39 C81.6019784,2.28860671 81.2940032,2.15805202 81,2 C80.8045247,1.9032444 80.6042674,1.81646624 80.4,1.74 C80.2,1.66 80,1.65 79.76,1.59 C79.52,1.53 79.32,1.59 79.11,1.49 C78.6786244,1.40503938 78.2396321,1.36482635 77.8,1.37 L77.47,1.37 C76.8673321,1.3299253 76.2626679,1.3299253 75.66,1.37 C74.6592221,1.42214795 73.6558521,1.39204685 72.66,1.28 C72.5802901,1.27036519 72.4997099,1.27036519 72.42,1.28 C72.1436946,1.29999419 71.8663054,1.29999419 71.59,1.28 C71.4008189,1.2550535 71.2091811,1.2550535 71.02,1.28 C70.69,1.28 70.36,1.28 70.02,1.34 C69.5005881,1.37497491 68.9794119,1.37497491 68.46,1.34 C68.1258393,1.32611633 67.7911092,1.34285283 67.46,1.39 C67.1926024,1.47489872 67.0080998,1.71956525 67,2 C67,2.13 67,2.27 67,2.41 C67.0349455,2.68221639 67.0349455,2.95778361 67,3.23 C66.9573257,3.62886182 66.9573257,4.03113818 67,4.43 L67,5.83 C66.989723,5.96647346 66.989723,6.10352654 67,6.24 C67.0667303,6.61949058 67.0935432,7.00492517 67.08,7.39 C67.08,7.66 67.08,7.94 67.08,8.21 C67.08,8.48 67.08,8.6 67.08,8.79 C67.08,10.14 67.08,11.48 67.13,12.79 C67.13,12.92 67.13,13.06 67.13,13.2 C67.13,13.64 67.13,14.08 67.13,14.52 C67.13,14.82 67.13,15.12 67.13,15.42 C67.13,16.16 67.13,16.9 67.13,17.65 C67.1250211,17.7299225 67.1250211,17.8100775 67.13,17.89 C67.2183294,18.2174818 67.2183294,18.5625182 67.13,18.89 C67.1149985,18.9726582 67.1149985,19.0573418 67.13,19.14 C67.1650236,19.4924654 67.1650236,19.8475346 67.13,20.2 C67.1199872,20.339821 67.1199872,20.480179 67.13,20.62 C67.1549885,21.0296193 67.1549885,21.4403807 67.13,21.85 C67.13,22.35 67.13,22.85 67.13,23.33 C67.13,23.81 67.13,24.54 67.13,25.15 C67.13,25.76 67.13,26.57 67.13,27.29 C67.13,27.34 67.13,27.4 67.13,27.45 C67.1581932,27.5259449 67.2159016,27.58726 67.29,27.62 C67.4737688,27.6793802 67.667895,27.6998146 67.86,27.68 C67.9955024,27.654772 68.1344976,27.654772 68.27,27.68 L68.75,27.81 C69.0124652,27.8903463 69.2855135,27.9307979 69.56,27.93 L70,27.93 C70.55,27.93 71.1,27.93 71.65,27.93 L72.47,27.93 L73.83,27.93 C74.83,27.93 75.91,27.93 77,27.93 C77.1665166,27.940001 77.3334834,27.940001 77.5,27.93 C78.43,27.87 79.36,27.75 80.28,27.62 C80.7406816,27.5340193 81.1950445,27.4170877 81.64,27.27 C81.943689,27.1480921 82.2350166,26.9974054 82.51,26.82 C82.8583012,26.6198594 83.1924231,26.3959977 83.51,26.15 C83.7257858,25.980746 83.9327257,25.800508 84.13,25.61 C84.7368497,25.008219 85.2705423,24.3369076 85.72,23.61 C86.0649019,23.109548 86.315669,22.5504051 86.46,21.96 C86.46,21.8 86.55,21.65 86.59,21.49 C86.843789,20.8173425 86.9429055,20.0961842 86.88,19.38 C86.88,19.33 86.88,19.27 86.88,19.22 C86.8699654,18.9779239 86.8398621,18.7370977 86.79,18.5 Z M72.52,7.16 L72.52,6.92 C72.5631314,6.63968586 72.7805244,6.41826713 73.06,6.37 C73.1929328,6.35538428 73.3270672,6.35538428 73.46,6.37 L75.35,6.29 L76.7,6.29 C77.112908,6.29029065 77.5248219,6.33047737 77.93,6.41 C78.3129662,6.48336542 78.662959,6.67586148 78.93,6.96 C79.0211654,7.06502488 79.1015677,7.17892821 79.17,7.3 C79.28,7.52 79.39,7.74 79.48,7.96 C79.5495281,8.14256546 79.5900192,8.33489827 79.6,8.53 C79.6146677,8.60932768 79.6146677,8.69067232 79.6,8.77 C79.5806621,8.87613494 79.5505047,8.98001025 79.51,9.08 L79.11,10 C78.9318202,10.5102937 78.4991583,10.8898218 77.97,11 C77.5694207,11.0957746 77.1611702,11.1560083 76.75,11.18 C76.5868201,11.1900136 76.4231799,11.1900136 76.26,11.18 C75.55,11.18 74.83,11.18 74.12,11.07 C73.88,11.07 73.63,11.07 73.38,11.07 L73.06,11.07 C72.9801994,11.0512515 72.9115463,11.000665 72.87,10.93 C72.8281865,10.7418394 72.7537273,10.5624605 72.65,10.4 C72.5861305,10.309134 72.5512679,10.20106 72.55,10.09 C72.51,9.08 72.48,8.12 72.52,7.16 Z M81.08,19.5 C81.08,19.71 81,19.93 80.95,20.14 C80.9397052,20.2229865 80.9087612,20.3020656 80.86,20.37 C80.63,20.72 80.44,21.08 80.25,21.44 C80.06,21.8 79.98,21.85 79.84,22.06 C79.6566374,22.3361291 79.395689,22.5518464 79.09,22.68 C78.7503624,22.8551122 78.3803974,22.9637258 78,23 C77.48,23 77,23.05 76.44,23 C75.75,23 75.07,23 74.38,23 C73.94,23 73.5,23 73.07,23 C72.98676,23.0055766 72.90324,23.0055766 72.82,23 C72.7675138,22.985411 72.7238146,22.9489949 72.7,22.9 C72.6331424,22.77736 72.598721,22.6396742 72.6,22.5 C72.6,21.9 72.6,21.3 72.6,20.69 C72.6250001,20.3371089 72.6250001,19.9828911 72.6,19.63 L72.6,19.46 C72.66,18.58 72.6,17.71 72.6,16.83 C72.5852132,16.7473226 72.5852132,16.6626774 72.6,16.58 C72.6119061,16.4995885 72.6506759,16.4255734 72.71,16.37 C72.81588,16.1848632 72.9929511,16.0511564 73.2,16 C73.6603101,15.925146 74.1296899,15.925146 74.59,16 L75,16.07 C75.2700397,16.130009 75.5499603,16.130009 75.82,16.07 C76.0875863,16.0251822 76.3587308,16.0050974 76.63,16.01 C77.2063076,15.9928179 77.7828219,16.0363917 78.35,16.14 C78.8687715,16.2261401 79.3534388,16.454626 79.75,16.8 L80.35,17.36 C80.6940681,17.6818418 80.9401905,18.0943568 81.06,18.55 C81.0705075,18.6028158 81.0705075,18.6571842 81.06,18.71 C81.0944722,18.9718939 81.101176,19.2366972 81.08,19.5 Z" id="Shape"></path>
            <path d="M111.22,27.73 C111.12,27.6 111.01,27.47 110.92,27.34 C110.44,26.63 109.92,25.92 109.5,25.21 C109.27,24.87 109.05,24.52 108.81,24.21 C108.551513,23.8523252 108.311208,23.4818557 108.09,23.1 C107.757066,22.5314468 107.389716,21.9837604 106.99,21.46 C106.75,21.16 106.53,20.84 106.3,20.53 L106.13,20.25 C106.090872,20.1783258 106.090872,20.0916742 106.13,20.02 C106.260261,19.9176165 106.397235,19.8240737 106.54,19.74 C107.09,19.33 107.64,18.92 108.18,18.5 C108.307227,18.3945718 108.42748,18.2809999 108.54,18.16 C108.61,18.08 108.68,17.99 108.76,17.91 C109.4596,17.2492035 110.017565,16.4530827 110.4,15.57 C110.425951,15.5190918 110.446078,15.4654193 110.46,15.41 C110.698357,14.7365105 110.862659,14.0390655 110.95,13.33 C110.96014,13.1656098 110.980176,13.0019799 111.01,12.84 C111.08,12.55 111.1,12.25 111.16,11.95 C111.230039,11.6001375 111.230039,11.2398625 111.16,10.89 C111.16,10.78 111.16,10.67 111.16,10.56 C111.087022,10.0155973 110.973371,9.47742522 110.82,8.95 C110.66,8.45 110.5,7.95 110.33,7.47 C110.23,7.18 110.11,6.9 109.99,6.63 C109.888482,6.40365076 109.757334,6.19179632 109.6,6 C109.465318,5.8280443 109.341735,5.64767863 109.23,5.46 C109.058024,5.17997926 108.853243,4.92148451 108.62,4.69 L107.85,3.94 C107.633177,3.72943614 107.387355,3.55096274 107.12,3.41 C106.58,3.13 106.04,2.85 105.5,2.59 C105.130421,2.40909741 104.741172,2.27151783 104.34,2.18 L102.18,1.61 C101.653271,1.45831266 101.1147,1.3512675 100.57,1.29 C100.46,1.29 100.35,1.29 100.24,1.22 L99.83,1.22 L97.94,1 L97.12,1 C96.843738,0.989787806 96.5674703,1.02010987 96.3,1.09 C96.1134886,1.13511418 95.9218171,1.15529012 95.73,1.15 L94.9,1.15 L94,1.15 L93.18,1.15 L91.78,1 L91.53,1 C91.3904159,1.02418157 91.2732041,1.11870717 91.22,1.25 C91.1251368,1.50823008 91.1251368,1.79176992 91.22,2.05 C91.3013423,2.3152116 91.3285478,2.59406742 91.3,2.87 C91.2649949,3.38941089 91.2649949,3.91058911 91.3,4.43 C91.3,4.68 91.3,4.93 91.3,5.17 L91.3,6 C91.2980714,6.13654099 91.3218168,6.27222857 91.37,6.4 C91.4621438,6.60385571 91.4832698,6.83272149 91.43,7.05 C91.4198718,7.18647902 91.4198718,7.32352098 91.43,7.46 C91.4502595,7.56570468 91.4502595,7.67429532 91.43,7.78 C91.357033,7.98868722 91.323134,8.20903079 91.33,8.43 C91.33,9.34 91.33,10.25 91.33,11.15 C91.3484992,11.7844296 91.3217649,12.419371 91.25,13.05 C91.1765895,13.7608145 91.1531986,14.4759076 91.18,15.19 C91.1751291,15.4347404 91.1952331,15.6793394 91.24,15.92 C91.2799413,16.1650498 91.2799413,16.4149502 91.24,16.66 C91.24,16.77 91.24,16.88 91.24,16.99 C91.1449987,17.7528722 91.1249029,18.5232122 91.18,19.29 C91.2050292,19.5092881 91.2050292,19.7307119 91.18,19.95 C91.18,20.75 91.18,21.54 91.18,22.39 C91.18,22.83 91.18,23.33 91.18,23.82 C91.18,24.82 91.18,25.91 91.18,26.96 C91.18,27.07 91.18,27.18 91.18,27.29 C91.1852237,27.4847665 91.2862653,27.664396 91.45,27.77 C91.5750061,27.8811251 91.7331793,27.9479094 91.9,27.96 L92.72,27.96 L93.54,27.96 C93.6944567,27.9513012 93.8493631,27.9647713 94,28 C94.32265,28.103317 94.6620664,28.144047 95,28.12 C95.1665166,28.109999 95.3334834,28.109999 95.5,28.12 C95.8031868,28.1274976 96.1041084,28.0659454 96.38,27.94 C96.5408995,27.8876624 96.657535,27.7476997 96.68,27.58 C96.7329041,27.1990404 96.7563071,26.8145638 96.75,26.43 C96.7400877,26.2367937 96.7400877,26.0432063 96.75,25.85 C96.7650002,25.6035614 96.7650002,25.3564386 96.75,25.11 C96.75,24.86 96.75,24.61 96.75,24.37 C96.75,24.13 96.75,23.98 96.75,23.79 C96.7099802,23.27077 96.7099802,22.74923 96.75,22.23 C96.758112,22.0610936 96.8337857,21.9025393 96.96,21.79 C97.1052359,21.6216448 97.3176848,21.526409 97.54,21.53 L98.36,21.53 C98.6068734,21.5319025 98.8527329,21.4982231 99.09,21.43 L99.73,21.26 C99.9502541,21.1970416 100.185121,21.2918123 100.3,21.49 C100.362473,21.5796818 100.419252,21.6731993 100.47,21.77 C100.626413,22.1342278 100.838998,22.4716633 101.1,22.77 C101.21,22.89 101.3,23.03 101.4,23.16 L101.73,23.63 C102.026084,24.0689285 102.360744,24.4805609 102.73,24.86 C102.790807,24.9155595 102.83861,24.9838487 102.87,25.06 C103.08,25.45 103.37,25.79 103.61,26.15 C103.736581,26.3299795 103.840686,26.5247573 103.92,26.73 C103.92,26.83 103.99,26.94 104.04,27.04 C104.217334,27.4675963 104.58942,27.7838693 105.04,27.89 L105.11,27.89 C105.512735,28.0715071 105.941141,28.1895719 106.38,28.24 C106.677489,28.2948911 106.982511,28.2948911 107.28,28.24 C107.628581,28.1597003 107.992836,28.1805148 108.33,28.3 C108.49,28.36 108.65,28.38 108.81,28.43 C108.945523,28.4550009 109.084477,28.4550009 109.22,28.43 L110.22,28.31 L111.03,28.15 C111.104793,28.1161765 111.172619,28.0686978 111.23,28.01 C111.298515,27.9277585 111.294208,27.8071443 111.22,27.73 Z M105.22,12.97 C105.13,13.34 105.07,13.72 104.96,14.09 C104.922019,14.2217575 104.857346,14.3442958 104.77,14.45 C104.687919,14.5599724 104.597663,14.6635995 104.5,14.76 C104.403926,14.8580106 104.300271,14.9482906 104.19,15.03 C103.729522,15.3798305 103.211848,15.6471267 102.66,15.82 C101.909817,16.0859711 101.131258,16.2638315 100.34,16.35 C99.7150968,16.4549804 99.0834855,16.5151338 98.45,16.53 L97.35,16.53 C97.2105975,16.5203523 97.0996477,16.4094025 97.09,16.27 C97.0998948,16.0767933 97.0998948,15.8832067 97.09,15.69 C97.0699803,15.5842727 97.0699803,15.4757273 97.09,15.37 C97.09,15.18 97.09,14.99 97.09,14.79 C97.09,14.27 97.09,13.79 97.09,13.23 C97.0948043,13.1500721 97.0948043,13.0699279 97.09,12.99 C97.065222,12.8544564 97.065222,12.7155436 97.09,12.58 C97.1430042,12.0885178 97.1663798,11.5942909 97.16,11.1 C97.190117,10.938055 97.190117,10.771945 97.16,10.61 C97.0896337,10.4115198 97.0361112,10.2074651 97,10 C96.9750571,9.78070699 96.9750571,9.55929301 97,9.34 C97.0863969,8.7709329 97.1232019,8.19543679 97.11,7.62 C97.0863961,7.41122747 97.0496566,7.20415027 97,7 C97.003246,6.80419332 97.1205038,6.62830653 97.3,6.55 C97.404102,6.51395958 97.5111851,6.4871888 97.62,6.47 C98.3046194,6.39501318 98.9953806,6.39501318 99.68,6.47 C100.08,6.47 100.5,6.54 100.91,6.56 C101.25423,6.58467993 101.592064,6.66576023 101.91,6.8 C102.19,6.91 102.46,7.04 102.74,7.16 C103.092089,7.31443159 103.411212,7.53510161 103.68,7.81 C104.01,8.14 104.36,8.45 104.68,8.81 C104.854943,8.98664609 104.991169,9.1977978 105.08,9.43 C105.10484,9.5385977 105.10484,9.6514023 105.08,9.76 C105.08,9.86 105.08,9.97 105.08,10.08 C105.054841,10.2423645 105.054841,10.4076355 105.08,10.57 C105.124313,10.787109 105.144436,11.0084593 105.14,11.23 C105.129986,11.3931799 105.129986,11.5568201 105.14,11.72 C105.228216,12.1408577 105.245118,12.5735433 105.19,13 L105.22,12.97 Z" id="Shape"></path>
            <path d="M61.35,1.82 C61.0552538,1.74059872 60.7447462,1.74059872 60.45,1.82 C60.34,1.82 60.24,1.82 60.13,1.88 C59.9379004,1.89649387 59.7509701,1.95087358 59.58,2.04 C59.4286654,2.1052619 59.2646973,2.13600591 59.1,2.13 C58.6295342,2.12041256 58.1623007,2.04982333 57.71,1.92 C57.4966926,1.87207098 57.2786213,1.84858638 57.06,1.85 C56.7,1.85 56.34,1.85 55.99,1.85 C55.3,1.79 54.61,1.85 53.93,1.85 C53.25,1.85 52.93,1.85 52.36,1.85 C51.8075752,1.84673792 51.2561196,1.8032899 50.71,1.72 C50.6302901,1.71036519 50.5497099,1.71036519 50.47,1.72 C49.7005194,1.68000225 48.9294806,1.68000225 48.16,1.72 C48.050227,1.7299931 47.939773,1.7299931 47.83,1.72 C47.11,1.72 46.4,1.72 45.69,1.72 C45.4122551,1.70657728 45.1343878,1.74385216 44.87,1.83 C44.7643431,1.85075691 44.6556569,1.85075691 44.55,1.83 C44.0341155,1.8674165 43.5163244,1.87075709 43,1.84 C42.9467825,1.83502798 42.8932175,1.83502798 42.84,1.84 C42.4272127,1.87004745 42.0127873,1.87004745 41.6,1.84 L41.36,1.84 C41.1963477,1.86411281 41.0517291,1.9593454 40.9649258,2.10015971 C40.8781224,2.24097402 40.8580166,2.4129611 40.91,2.57 C41.0399039,2.81237249 41.1020844,3.08527576 41.09,3.36 C41.09,3.74 41.09,4.13 41.09,4.51 C41.1052517,4.76008734 41.0747524,5.01085911 41,5.25 C40.9343542,5.46285058 40.9559363,5.69305968 41.06,5.89 L41.27,6.34 C41.3052788,6.41226525 41.3657312,6.46916159 41.44,6.5 C41.6581562,6.61774902 41.9020952,6.67959273 42.15,6.68 L45.3,6.68 C45.4630007,6.66525803 45.6269993,6.66525803 45.79,6.68 C46.0859136,6.74126766 46.3879193,6.76811261 46.69,6.76 C47.02,6.76 47.35,6.76 47.69,6.76 C47.8881228,6.78046214 48.0541463,6.91881503 48.11,7.11 C48.145138,7.18189825 48.1655383,7.26009922 48.17,7.34 C48.17,7.73 48.25,8.11 48.25,8.49 C48.25,9.21 48.25,9.92 48.2,10.64 C48.1700028,11.2162766 48.1700028,11.7937234 48.2,12.37 C48.2200516,12.7530711 48.2200516,13.1369289 48.2,13.52 C48.2,14.13 48.2,14.73 48.2,15.34 C48.2,15.95 48.2,16.66 48.14,17.34 C48.0900095,18.0557949 48.0900095,18.7742051 48.14,19.49 C48.1800159,20.0926698 48.1800159,20.6973302 48.14,21.3 C48.1300023,21.4898685 48.1300023,21.6801315 48.14,21.87 C48.14,22.4 48.21,22.92 48.14,23.44 C48.07,23.96 48.14,24.44 48.14,25.01 C48.14,25.58 48.14,25.83 48.14,26.24 C48.1471558,26.5747692 48.1237252,26.9094925 48.07,27.24 C48.040125,27.4288304 48.0200979,27.6190878 48.01,27.81 C48.0064873,27.9816075 48.110242,28.1372396 48.27,28.2 C48.3914259,28.2683312 48.5325851,28.2930341 48.67,28.27 C49.0001274,28.2134147 49.3354751,28.1932939 49.67,28.21 C49.8083593,28.2131219 49.9464461,28.1962821 50.08,28.16 C50.2688207,28.1300626 50.4611793,28.1300626 50.65,28.16 L51.31,28.24 C51.6659246,28.2586524 52.0201163,28.302091 52.37,28.37 C52.4228851,28.3797785 52.4771149,28.3797785 52.53,28.37 L53.6,28.27 L53.68,28.27 C53.8649098,28.1982686 53.9929126,28.0275982 54.01,27.83 C54.01,27.7 54.01,27.56 53.94,27.43 C53.8519294,26.9992084 53.8283387,26.5577239 53.87,26.12 C53.8899837,25.7335915 53.8899837,25.3464085 53.87,24.96 C53.87,24.1900017 53.87,23.42 53.87,22.65 C53.87,21.88 53.87,21.22 53.87,20.51 C53.87,20.04 53.87,19.58 53.87,19.11 C53.9000004,18.6438155 53.9000004,18.1761845 53.87,17.71 C53.87,17.49 53.87,17.27 53.87,17.05 L53.87,17.05 C53.87,16.23 53.87,15.4 53.87,14.58 C53.87,14.47 53.87,14.36 53.87,14.25 C53.87,13.42 53.77,12.6 53.8,11.78 C53.8802958,11.5236863 53.9470547,11.2633267 54,11 C53.9650122,10.423864 53.9650122,9.84613597 54,9.27 C54.0297228,8.69705189 54.0297228,8.12294811 54,7.55 C53.9622018,7.31148823 53.9622018,7.06851177 54,6.83 L54,6.75 C54.0415463,6.67933498 54.1101994,6.62874852 54.19,6.61 L54.43,6.61 L57.43,6.61 C57.7319242,6.61359543 58.0334437,6.58679369 58.33,6.53 C58.5725681,6.47497529 58.8217358,6.45477251 59.07,6.47 C59.4283425,6.47473485 59.7859014,6.50480989 60.14,6.56 C60.2762445,6.57519092 60.4137555,6.57519092 60.55,6.56 C60.8,6.56 61.04,6.56 61.29,6.56 L61.37,6.56 C61.37,6.56 61.46,6.48 61.46,6.43 C61.46,6.19000169 61.46,5.94 61.46,5.69000169 C61.46,5.44 61.52,5.2 61.55,4.96 L61.55,4.67 C61.55,4.37 61.55,4.07 61.55,3.77 C61.5799926,3.22040889 61.5799926,2.66959111 61.55,2.12 C61.5398634,1.99208524 61.4641765,1.87855488 61.35,1.82 L61.35,1.82 Z" id="Path"></path>
        </g>
    </g>
</svg>